<svg width="512" height="149" viewBox="0 0 512 149" fill="none" xmlns="http://www.w3.org/2000/svg">
<g clip-path="url(#clip0_169_533)">
<rect y="0.753906" width="512" height="148" fill="white"/>
<path d="M18.4823 117.491L50.0839 31.5092H61.8153L95.4938 117.491H83.0889L73.4905 91.4505H39.0823L30.0453 117.491H18.4823ZM42.2256 82.1836H70.1226L61.5347 58.3713C58.9152 51.1377 56.9693 45.1944 55.6971 40.5414C54.6493 46.0546 53.1711 51.5287 51.2627 56.9636L42.2256 82.1836ZM100.489 89.8669L110.761 88.9285C111.248 93.2296 112.371 96.7681 114.13 99.5443C115.926 102.281 118.694 104.51 122.436 106.231C126.178 107.911 130.389 108.752 135.066 108.752C139.22 108.752 142.887 108.108 146.068 106.817C149.248 105.527 151.606 103.767 153.14 101.538C154.712 99.2706 155.498 96.8072 155.498 94.1484C155.498 91.4505 154.749 89.1044 153.253 87.1102C151.756 85.077 149.285 83.3761 145.843 82.0077C143.635 81.1084 138.752 79.7203 131.193 77.8434C123.634 75.9275 118.339 74.1289 115.308 72.4475C111.379 70.297 108.441 67.6382 106.495 64.471C104.587 61.2647 103.633 57.6871 103.633 53.7379C103.633 49.3977 104.811 45.3508 107.169 41.5971C109.527 37.8044 112.969 34.9304 117.497 32.9755C122.025 31.0204 127.058 30.0428 132.596 30.0428C138.695 30.0428 144.066 31.0791 148.706 33.1513C153.384 35.1846 156.975 38.1954 159.483 42.1837C161.99 46.1719 163.337 50.6881 163.524 55.732L153.084 56.5531C152.523 51.1181 150.614 47.0126 147.358 44.2364C144.14 41.4602 139.369 40.0722 133.045 40.0722C126.46 40.0722 121.651 41.3429 118.619 43.8845C115.626 46.387 114.13 49.4173 114.13 52.9754C114.13 56.0643 115.196 58.6059 117.329 60.6001C119.424 62.5942 124.888 64.647 133.719 66.7584C142.587 68.8307 148.669 70.6489 151.961 72.213C156.751 74.5199 160.288 77.4524 162.57 81.0106C164.853 84.5297 165.994 88.5961 165.994 93.2099C165.994 97.7847 164.74 102.105 162.233 106.172C159.726 110.199 156.115 113.347 151.4 115.615C146.723 117.843 141.446 118.957 135.571 118.957C128.124 118.957 121.875 117.824 116.823 115.556C111.809 113.288 107.861 109.886 104.98 105.351C102.136 100.776 100.639 95.6146 100.489 89.8669ZM180.868 117.491V31.5092H211.909C217.372 31.5092 221.545 31.7829 224.426 32.3302C228.468 33.0341 231.855 34.3831 234.586 36.3772C237.317 38.3322 239.507 41.0888 241.153 44.6469C242.837 48.2052 243.679 52.1152 243.679 56.3771C243.679 63.6889 241.453 69.8864 237 74.9695C232.546 80.0135 224.501 82.5355 212.864 82.5355H191.758V117.491H180.868ZM191.758 72.3888H213.032C220.067 72.3888 225.062 71.0204 228.019 68.2833C230.975 65.5463 232.453 61.6949 232.453 56.7291C232.453 53.1318 231.573 50.0624 229.814 47.5209C228.094 44.9402 225.811 43.2393 222.967 42.4182C221.133 41.9099 217.747 41.6557 212.807 41.6557H191.758V72.3888ZM244.297 117.491V105.468H255.804V117.491H244.297ZM274.607 117.491V31.5092H285.777L328.998 99.0164V31.5092H339.438V117.491H328.268L285.047 49.9256V117.491H274.607ZM358.017 117.491V31.5092H417.516V41.6557H368.907V67.99H414.429V78.078H368.907V107.345H419.424V117.491H358.017ZM455.405 117.491V41.6557H428.294V31.5092H493.518V41.6557H466.294V117.491H455.405Z" fill="black"/>
</g>
<defs>
<clipPath id="clip0_169_533">
<rect width="512" height="149" fill="white"/>
</clipPath>
</defs>
</svg>
