<svg width="250" height="250" viewBox="0 0 250 250" fill="none" xmlns="http://www.w3.org/2000/svg">
<rect width="250" height="250" rx="20" fill="white"/>
<path fill-rule="evenodd" clip-rule="evenodd" d="M146.467 28.6621C147.661 30.1439 148.27 32.1432 149.487 36.1424L176.082 123.506C166.092 118.322 155.371 114.692 144.286 112.742L126.97 54.2265C126.832 53.7598 126.547 53.3503 126.157 53.0592C125.767 52.7682 125.293 52.6113 124.806 52.612C124.319 52.6127 123.846 52.7709 123.457 53.063C123.067 53.3551 122.783 53.7654 122.646 54.2326L105.54 112.712C94.4059 114.654 83.6348 118.289 73.6015 123.492L100.327 36.1227C101.548 32.1303 102.158 30.1348 103.352 28.6553C104.406 27.3494 105.777 26.3351 107.333 25.7091C109.097 25 111.185 25 115.36 25H134.448C138.628 25 140.718 25 142.483 25.7106C144.041 26.339 145.412 27.355 146.467 28.6621Z" fill="black"/>
<path fill-rule="evenodd" clip-rule="evenodd" d="M149.649 127.664C145.265 131.413 136.514 133.97 126.435 133.97C114.064 133.97 103.695 130.118 100.942 124.938C99.9591 127.908 99.7386 131.305 99.7386 133.475C99.7386 133.475 99.0901 144.133 106.503 151.545C106.503 150.63 106.683 149.723 107.034 148.878C107.384 148.032 107.898 147.264 108.545 146.617C109.192 145.97 109.96 145.457 110.806 145.107C111.651 144.757 112.558 144.576 113.473 144.577C120.069 144.577 120.061 150.331 120.056 155.001L120.055 155.417C120.055 162.505 124.387 168.58 130.548 171.142C129.6 169.191 129.108 167.049 129.111 164.879C129.111 158.119 133.08 155.602 137.692 152.676C141.362 150.348 145.439 147.763 148.249 142.576C149.763 139.781 150.553 136.653 150.548 133.475C150.55 131.503 150.247 129.543 149.649 127.664Z" fill="#FF5D01"/>
<path fill-rule="evenodd" clip-rule="evenodd" d="M149.649 127.664C145.265 131.413 136.514 133.97 126.435 133.97C114.064 133.97 103.695 130.118 100.942 124.938C99.9591 127.908 99.7386 131.305 99.7386 133.475C99.7386 133.475 99.0901 144.133 106.503 151.545C106.503 150.63 106.683 149.723 107.034 148.878C107.384 148.032 107.898 147.264 108.545 146.617C109.192 145.97 109.96 145.457 110.806 145.107C111.651 144.757 112.558 144.576 113.473 144.577C120.069 144.577 120.061 150.331 120.056 155.001L120.055 155.417C120.055 162.505 124.387 168.58 130.548 171.142C129.6 169.191 129.108 167.049 129.111 164.879C129.111 158.119 133.08 155.602 137.692 152.676C141.362 150.348 145.439 147.763 148.249 142.576C149.763 139.781 150.553 136.653 150.548 133.475C150.55 131.503 150.247 129.543 149.649 127.664Z" fill="url(#paint0_linear_101_4)"/>
<path fill-rule="evenodd" clip-rule="evenodd" d="M49.2227 192.909C61.2485 192.909 67.5561 197.212 67.5561 205.347V213.274C67.5606 217.027 67.6242 219.111 67.8508 221.086L67.8977 221.48C67.9803 222.136 68.0811 222.792 68.2045 223.505H62.3682C62.0735 221.618 61.9561 219.555 61.9561 217.373C58.478 222.266 52.5242 224.624 42.6788 224.624C33.7773 224.624 28 221.382 28 215.782C28 213.129 29.1197 210.83 31.1242 209.356C33.247 207.824 36.0174 206.762 43.5038 206.349L61.897 205.289V204.698C61.897 199.983 57.1811 197.212 49.2227 197.212C41.1462 197.212 36.253 199.511 35.3098 203.874H29.1212C30.0644 197.389 37.6098 192.908 49.2235 192.908L49.2227 192.909ZM93.8136 192.909C103.953 192.909 110.496 195.62 113.444 200.219L108.669 202.517C105.839 198.863 101.536 197.212 93.2826 197.212C86.0318 197.212 82.6712 198.804 82.6712 201.869C82.6712 204.286 84.853 205.407 88.7432 205.701L103.069 206.821C110.733 207.47 113.739 209.945 113.739 214.78C113.739 220.616 108.845 224.624 96.6432 224.624C85.8553 224.624 79.547 221.559 75.9508 216.136L80.6083 213.601C83.2614 217.904 88.7432 220.262 97.4091 220.262C104.542 220.262 108.139 218.611 108.139 215.133C108.139 212.717 106.723 211.773 102.067 211.419L87.8591 210.299C80.8439 209.71 77.1303 207.234 77.1303 202.105C77.1303 196.387 83.3788 192.909 93.8136 192.909ZM200.776 192.909C213.333 192.909 221.939 199.275 221.939 208.767C221.939 218.258 213.333 224.624 200.776 224.624C188.22 224.624 179.613 218.258 179.613 208.767C179.613 199.275 188.219 192.909 200.776 192.909ZM131.46 184.066V194.028H146.198V198.45H131.46V212.127C131.46 217.196 134.231 219.201 139.359 219.201C141.776 219.201 144.253 218.847 146.316 218.375V223.151C144.842 223.799 141.482 224.33 138.711 224.33C127.805 224.33 125.801 218.493 125.801 212.658V198.45H116.545V194.029H125.801V186.365L131.46 184.066ZM173.28 193.145C174.871 193.145 175.933 193.203 177.171 193.498V198.922C175.815 198.686 174.813 198.568 173.221 198.568C168.564 198.568 165.911 199.865 163.848 202.164C161.49 204.64 160.664 208.236 160.664 212.48V223.505H155.064V194.029H160.252V202.576C161.961 196.858 166.972 193.144 173.28 193.144V193.145ZM61.897 209.12L44.6242 210.181C36.3121 210.711 33.9538 212.245 33.9538 215.664C33.9538 218.847 37.7265 220.439 44.5652 220.439C54.6462 220.439 61.897 216.666 61.897 210.477V209.12ZM200.776 197.566C191.52 197.566 185.567 201.928 185.567 208.767C185.567 215.605 191.521 219.967 200.776 219.967C209.973 219.967 215.986 215.605 215.986 208.767C215.986 201.928 209.972 197.566 200.776 197.566Z" fill="black"/>
<defs>
<linearGradient id="paint0_linear_101_4" x1="7066.25" y1="-1769.26" x2="4837.19" y2="2897.03" gradientUnits="userSpaceOnUse">
<stop stop-color="#FF1639"/>
<stop offset="1" stop-color="#FF1639" stop-opacity="0"/>
</linearGradient>
</defs>
</svg>
