<svg width="500" height="500" viewBox="0 0 500 500" fill="none" xmlns="http://www.w3.org/2000/svg">
<path d="M471.074 318.121V397.584C471.074 445.436 457.081 459.866 402.013 459.866H378.993C374.027 459.866 369.966 455.805 369.966 450.839V435.94C369.966 430.973 374.027 426.913 378.993 426.913H399.765C426.409 426.913 430.906 421.51 430.906 397.584V318.121C430.906 286.51 439.027 265.772 462.953 249.06C438.591 232.349 430.906 211.141 430.906 179.53V99.1946C430.906 75.2685 426.376 69.8658 399.765 69.8658H379.463C374.497 69.8658 370.436 65.8054 370.436 60.8389V45.9396C370.436 40.9732 374.497 36.9128 379.463 36.9128H402.047C457.114 36.9128 471.107 51.3423 471.107 99.1946V179.53C471.107 207.517 476.98 220.604 498.188 235.503V261.678C476.98 276.577 471.107 290.101 471.107 318.087L471.074 318.121Z" fill="#FCB339"/>
<path d="M122.517 459.866H99.4966C44.4295 459.866 30.4362 445.436 30.4362 397.584V318.121C30.4362 290.134 24.5638 276.577 3.3557 261.711V235.537C24.5638 220.638 30.4362 207.55 30.4362 179.564V99.1946C30.4362 51.3423 44.4295 36.9128 99.4966 36.9128H122.081C127.047 36.9128 131.107 40.9732 131.107 45.9396V60.8389C131.107 65.8054 127.047 69.8658 122.081 69.8658H101.779C75.1342 69.8658 70.6376 75.2685 70.6376 99.1946V179.53C70.6376 211.141 62.953 232.349 38.5906 249.06C62.5168 265.772 70.6376 286.544 70.6376 318.121V397.584C70.6376 421.51 75.1678 426.913 101.779 426.913H122.55C127.517 426.913 131.577 430.973 131.577 435.94V450.839C131.577 455.805 127.517 459.866 122.55 459.866H122.517Z" fill="#FCB339"/>
<path d="M395.973 87.2483H107.383C98.116 87.2483 90.604 94.7603 90.604 104.027V392.617C90.604 401.884 98.116 409.396 107.383 409.396H395.973C405.24 409.396 412.752 401.884 412.752 392.617V104.027C412.752 94.7603 405.24 87.2483 395.973 87.2483Z" fill="#FCB339"/>
<path d="M330.42 156.915C330.42 161.192 326.988 163.283 323.071 163.283H321.322C313.261 162.396 306.17 161.731 299.112 161.287C289.367 160.653 279.622 160.368 267.254 160.368C232.45 160.368 212.83 182.956 212.83 231.108V264.34C212.83 312.017 231.997 335.048 267.254 335.048C288.655 335.048 302.156 334.225 321.322 332.039H323.071C326.988 332.039 330.42 334.225 330.42 338.44V353.802C330.42 359.346 328.769 361.913 321.776 363.181C315.559 364.289 308.307 365.302 300.472 366.094C300.407 366.128 300.31 366.128 300.213 366.128C290.015 367.171 278.78 367.836 267.254 367.836C208.103 367.836 174.497 326.939 174.497 264.34V231.108C174.497 168.478 207.617 127.517 267.254 127.517C287.36 127.517 307.368 129.703 321.776 132.237C328.769 133.504 330.42 135.595 330.42 141.614V156.915Z" fill="white"/>
<path d="M267.658 367.087C232.247 367.087 212.997 344.077 212.997 296.408V231.172C212.997 183.06 232.702 160.491 267.658 160.491C280.079 160.491 289.867 160.776 299.654 161.409C289.607 160.364 278.649 159.732 267.658 159.732C207.761 159.732 174.497 200.659 174.497 263.236V264.375C174.497 326.921 208.249 367.785 267.658 367.785C279.234 367.785 290.517 367.121 300.76 366.077C290.615 366.805 280.567 367.087 267.658 367.087Z" fill="#7D5A1D"/>
</svg>
