<svg width="512" height="512" viewBox="0 0 512 512" fill="none" xmlns="http://www.w3.org/2000/svg">
<path d="M123.992 473.721H100.293C43.5995 473.721 29.193 458.865 29.193 409.6V327.791C29.193 298.978 23.1471 285.02 1.31284 269.716V242.768C23.1471 227.429 29.193 213.955 29.193 185.142V102.4C29.193 53.1347 43.5995 38.2791 100.293 38.2791H123.543C128.656 38.2791 132.837 42.4594 132.837 47.5725V62.9117C132.837 68.0248 128.656 72.2051 123.543 72.2051H102.642C75.2108 72.2051 70.5814 77.7673 70.5814 102.4V185.108C70.5814 217.652 62.6699 239.486 37.5881 256.691C62.2208 273.896 70.5814 295.281 70.5814 327.791V409.6C70.5814 434.233 75.2454 439.795 102.642 439.795H124.027C129.14 439.795 133.32 443.975 133.32 449.088V464.428C133.32 469.541 129.14 473.721 124.027 473.721H123.992Z" fill="#FCB339" stroke="#1E1E1E" stroke-width="0.75" stroke-miterlimit="10"/>
<path d="M369.801 115.286H138.503V401.896H369.801V115.286Z" fill="white" stroke="#1E1E1E" stroke-width="0.75" stroke-miterlimit="10"/>
<path d="M271.823 386.038C234.2 386.038 213.748 360.922 213.748 308.893V237.69C213.748 185.177 234.684 160.544 271.823 160.544C285.02 160.544 295.419 160.855 305.818 161.546C295.143 160.406 283.5 159.715 271.823 159.715C208.186 159.715 172.843 204.385 172.843 272.687V273.93C172.843 342.197 208.704 386.798 271.823 386.798C284.122 386.798 296.11 386.073 306.993 384.933C296.214 385.727 285.538 386.038 271.823 386.038Z" fill="#FCB339" stroke="#1E1E1E" stroke-width="0.75" stroke-miterlimit="10"/>
<path d="M482.842 327.791V409.6C482.842 458.865 468.435 473.721 411.742 473.721H388.042C382.929 473.721 378.749 469.541 378.749 464.428V449.088C378.749 443.975 382.929 439.795 388.042 439.795H409.427C436.858 439.795 441.488 434.233 441.488 409.6V327.791C441.488 295.246 449.848 273.896 474.481 256.691C449.399 239.486 441.488 217.652 441.488 185.108V102.4C441.488 77.7673 436.824 72.2051 409.427 72.2051H388.526C383.413 72.2051 379.232 68.0248 379.232 62.9117V47.5725C379.232 42.4594 383.413 38.2791 388.526 38.2791H411.777C468.47 38.2791 482.876 53.1347 482.876 102.4V185.108C482.876 213.921 488.922 227.394 510.756 242.734V269.681C488.922 285.02 482.876 298.943 482.876 327.756L482.842 327.791Z" fill="#FCB339" stroke="#1E1E1E" stroke-width="0.75" stroke-miterlimit="10"/>
<path d="M414.679 80.3239H97.4942C88.0626 80.3239 80.3239 87.9935 80.3239 97.3906V414.575C80.3239 424.006 88.0626 431.642 97.4942 431.642H414.679C424.11 431.642 431.745 424.006 431.745 414.575V97.3906C431.745 87.9935 424.11 80.3239 414.679 80.3239ZM339.226 156.778C339.226 161.442 335.564 163.723 331.384 163.723H329.518C320.916 162.755 313.35 162.03 305.818 161.546C295.419 160.855 285.02 160.544 271.823 160.544C234.684 160.544 213.748 185.177 213.748 237.69V273.93C213.748 325.925 234.2 351.041 271.823 351.041C294.659 351.041 309.066 350.143 329.518 347.759H331.384C335.564 347.759 339.226 350.143 339.226 354.738V371.494C339.226 377.54 337.464 380.338 330.002 381.72C323.368 382.929 315.63 384.035 307.269 384.898C307.2 384.933 307.096 384.933 306.993 384.933C296.11 386.073 284.122 386.798 271.823 386.798C208.704 386.798 172.843 342.197 172.843 273.93V237.69C172.843 169.388 208.186 124.718 271.823 124.718C293.277 124.718 314.628 127.102 330.002 129.866C337.464 131.248 339.226 133.528 339.226 140.092V156.778V156.778Z" fill="#FCB339" stroke="#1E1E1E" stroke-width="0.75" stroke-miterlimit="10"/>
</svg>
