<svg width="512" height="512" viewBox="0 0 512 512" fill="none" xmlns="http://www.w3.org/2000/svg">
<g clip-path="url(#clip0_161_196)">
<path d="M256 512C397.385 512 512 397.385 512 256C512 114.615 397.385 0 256 0C114.615 0 0 114.615 0 256C0 397.385 114.615 512 256 512Z" fill="#5C2D91"/>
<path opacity="0.1" d="M78.56 72C52.5357 95.1905 31.5216 123.451 16.8057 155.051C2.08988 186.65 -6.01769 220.921 -7.01999 255.765C-8.0223 290.608 -1.89824 325.289 10.9768 357.682C23.8519 390.075 43.2067 419.497 67.8548 444.145C92.503 468.793 121.925 488.148 154.318 501.023C186.711 513.898 221.392 520.022 256.235 519.02C291.079 518.018 325.35 509.91 356.949 495.194C388.549 480.478 416.809 459.464 440 433.44L78.56 72Z" fill="white"/>
<path d="M67.2404 329.919C65.7471 329.943 64.2652 329.656 62.8882 329.078C61.5112 328.5 60.2691 327.642 59.2404 326.559C58.1836 325.515 57.3483 324.268 56.7847 322.894C56.2211 321.519 55.9407 320.045 55.9604 318.559C55.9498 317.075 56.2342 315.603 56.7973 314.23C57.3604 312.857 58.1909 311.609 59.2404 310.559C60.259 309.458 61.4974 308.583 62.8754 307.99C64.2534 307.398 65.7405 307.101 67.2404 307.119C68.7382 307.116 70.2208 307.419 71.5968 308.011C72.9727 308.602 74.2128 309.47 75.2404 310.559C76.3081 311.6 77.1557 312.844 77.7329 314.218C78.3102 315.592 78.6052 317.069 78.6004 318.559C78.6144 320.051 78.3236 321.53 77.7459 322.906C77.1681 324.282 76.3155 325.525 75.2404 326.559C74.203 327.631 72.9593 328.481 71.5844 329.058C70.2094 329.636 68.7317 329.929 67.2404 329.919Z" fill="white"/>
<path d="M226.2 327.919H205.24L130.28 211.599C128.413 208.733 126.858 205.676 125.64 202.479H125C125.713 209.121 125.98 215.802 125.8 222.479V327.919H108.76V182.079H130.92L203.88 296.319C206.92 301.066 208.894 304.319 209.8 306.079H210.2C209.356 298.966 209.009 291.801 209.16 284.639V182.079H226.2V327.919Z" fill="white"/>
<path d="M341.56 327.919H264.04V182.079H337.96V197.519H281.48V245.999H334.12V261.359H281.48V311.919H341.64L341.56 327.919Z" fill="white"/>
<path d="M456.04 197.519H413.64V327.919H396.6V197.519H354.68V182.079H456.04V197.519Z" fill="white"/>
</g>
<defs>
<clipPath id="clip0_161_196">
<rect width="512" height="512" fill="white"/>
</clipPath>
</defs>
</svg>
