<svg width="512" height="231" viewBox="0 0 512 231" fill="none" xmlns="http://www.w3.org/2000/svg">
<g clip-path="url(#clip0_169_581)">
<rect y="0.5" width="512" height="230" fill="white"/>
<path d="M303.384 83.689C292.928 83.689 285.137 88.8282 285.137 101.187C285.137 110.497 290.265 116.967 302.82 116.967C313.463 116.967 320.693 110.702 320.693 100.802C320.693 89.5864 314.224 83.689 303.384 83.689V83.689ZM282.473 170.98C279.998 174.017 277.531 177.251 277.531 181.057C277.531 188.661 287.219 190.942 300.532 190.942C311.569 190.942 326.591 190.173 326.591 179.923C326.591 173.82 319.363 173.445 310.229 172.872L282.473 170.98ZM338.761 84.2615C342.176 88.6403 345.797 94.7255 345.797 103.474C345.797 124.573 329.254 136.94 305.296 136.94C299.202 136.94 293.689 136.179 290.265 135.225L283.994 145.304L302.623 146.44C335.527 148.538 354.919 149.495 354.919 174.775C354.919 196.643 335.715 209.003 302.623 209.003C268.21 209.003 255.084 200.255 255.084 185.23C255.084 176.672 258.891 172.12 265.548 165.832C259.266 163.186 257.184 158.431 257.184 153.292C257.184 149.11 259.266 145.304 262.697 141.686C266.118 138.076 269.918 134.464 274.485 130.282C265.172 125.715 258.13 115.824 258.13 101.75C258.13 79.8828 272.58 64.8674 301.677 64.8674C309.854 64.8674 314.796 65.6191 319.175 66.7728H356.259V82.9287L338.763 84.2615" fill="#362701"/>
<path d="M389.709 49.7014C378.869 49.7014 372.596 43.4304 372.596 32.5797C372.596 21.7486 378.869 15.8513 389.709 15.8513C400.743 15.8513 407.018 21.7508 407.018 32.5797C407.018 43.4282 400.745 49.7014 389.709 49.7014ZM365.178 163.988V148.964L374.875 147.64C377.538 147.257 377.921 146.685 377.921 143.825V87.9214C377.921 85.8391 377.35 84.4997 375.447 83.936L365.178 80.3176L367.269 64.9199H406.634V143.829C406.634 146.886 406.822 147.26 409.682 147.644L419.377 148.968V163.99H365.178" fill="#362701"/>
<path d="M494.572 156.611C486.395 160.599 474.419 164.217 463.573 164.217C440.945 164.217 432.393 155.095 432.393 133.595V83.7831C432.393 82.6382 432.393 81.88 430.864 81.88H417.55V64.9549C434.296 63.0518 440.945 54.6789 443.036 33.9541H461.106V60.9607C461.106 62.2914 461.106 62.8617 462.625 62.8617H489.435V81.88H461.106V127.321C461.106 138.544 463.767 142.914 474.037 142.914C479.362 142.914 484.875 141.583 489.435 139.876L494.572 156.614" fill="#362701"/>
<path d="M212.818 106.708L125.87 19.7691C124.679 18.578 123.266 17.6332 121.71 16.9886C120.154 16.344 118.486 16.0122 116.802 16.0122C115.118 16.0122 113.45 16.344 111.894 16.9886C110.339 17.6332 108.925 18.578 107.734 19.7691L89.6796 37.8216L112.578 60.7291C115.27 59.8114 118.166 59.6664 120.936 60.3106C123.706 60.9548 126.241 62.3624 128.251 64.3737C130.272 66.3979 131.683 68.9494 132.323 71.737C132.962 74.5245 132.806 77.4359 131.87 80.1385L153.943 102.218C156.645 101.279 159.557 101.12 162.345 101.76C165.133 102.401 167.684 103.814 169.705 105.839C171.124 107.254 172.249 108.936 173.017 110.787C173.785 112.638 174.18 114.623 174.18 116.627C174.18 118.631 173.785 120.616 173.017 122.467C172.249 124.318 171.124 126 169.705 127.415C168.289 128.834 166.606 129.96 164.755 130.728C162.903 131.496 160.917 131.891 158.913 131.891C156.908 131.891 154.922 131.496 153.071 130.728C151.219 129.96 149.536 128.834 148.12 127.415C145.992 125.285 144.541 122.573 143.951 119.621C143.36 116.668 143.656 113.607 144.801 110.823L124.214 90.2354V144.408C125.708 145.143 127.072 146.117 128.251 147.292C131.113 150.156 132.721 154.038 132.721 158.086C132.721 162.135 131.113 166.017 128.251 168.88C122.286 174.837 112.622 174.837 106.675 168.88C105.255 167.464 104.13 165.781 103.361 163.929C102.593 162.077 102.198 160.091 102.198 158.086C102.198 156.081 102.593 154.096 103.361 152.244C104.13 150.391 105.255 148.709 106.675 147.292C108.099 145.86 109.797 144.728 111.667 143.965V89.2871C109.797 88.524 108.099 87.3923 106.675 85.9594C104.532 83.8184 103.075 81.0886 102.488 78.1172C101.902 75.1459 102.212 72.0671 103.38 69.2725L80.8041 46.6883L21.1863 106.306C19.9949 107.497 19.0498 108.911 18.405 110.467C17.7602 112.023 17.4283 113.691 17.4283 115.375C17.4283 117.059 17.7602 118.727 18.405 120.283C19.0498 121.839 19.9949 123.253 21.1863 124.444L108.134 211.392C109.325 212.583 110.738 213.528 112.294 214.172C113.85 214.817 115.518 215.149 117.202 215.149C118.886 215.149 120.554 214.817 122.11 214.172C123.665 213.528 125.079 212.583 126.27 211.392L212.818 124.855C215.224 122.448 216.575 119.184 216.575 115.781C216.575 112.378 215.224 109.115 212.818 106.708" fill="#F03C2E"/>
</g>
<defs>
<clipPath id="clip0_169_581">
<rect width="512" height="231" fill="white"/>
</clipPath>
</defs>
</svg>
