<svg width="512" height="512" viewBox="0 0 512 512" fill="none" xmlns="http://www.w3.org/2000/svg">
<g clip-path="url(#clip0_169_574)">
<rect width="512" height="512" fill="white"/>
<path d="M176.794 398.393C176.794 400.323 174.575 401.867 171.778 401.867C168.593 402.156 166.375 400.613 166.375 398.393C166.375 396.464 168.593 394.92 171.392 394.92C174.286 394.631 176.794 396.174 176.794 398.393ZM146.79 394.052C146.115 395.982 148.044 398.201 150.939 398.779C153.447 399.745 156.342 398.779 156.92 396.85C157.499 394.92 155.666 392.702 152.771 391.833C150.264 391.158 147.466 392.123 146.79 394.052ZM189.432 392.412C186.635 393.087 184.705 394.92 184.995 397.139C185.283 399.069 187.792 400.323 190.686 399.647C193.485 398.973 195.414 397.139 195.125 395.21C194.835 393.377 192.23 392.123 189.432 392.412ZM252.913 22.7202C119.102 22.7202 16.7422 124.308 16.7422 258.119C16.7422 365.109 84.0817 456.665 180.267 488.887C192.616 491.106 196.958 483.485 196.958 477.214C196.958 471.232 196.668 438.238 196.668 417.978C196.668 417.978 129.135 432.449 114.954 389.229C114.954 389.229 103.955 361.154 88.1336 353.918C88.1336 353.918 66.0409 338.772 89.6772 339.062C89.6772 339.062 113.7 340.991 126.917 363.952C148.044 401.191 183.451 390.483 197.246 384.115C199.466 368.679 205.736 357.971 212.683 351.603C158.753 345.622 104.341 337.808 104.341 244.998C104.341 218.468 111.673 205.154 127.109 188.174C124.601 181.904 116.401 156.048 129.618 122.668C149.781 116.397 196.186 148.716 196.186 148.716C215.48 143.314 236.223 140.516 256.772 140.516C277.321 140.516 298.063 143.314 317.358 148.716C317.358 148.716 363.762 116.301 383.925 122.668C397.142 156.145 388.942 181.904 386.434 188.174C401.87 205.25 411.325 218.564 411.325 244.998C411.325 338.096 354.501 345.526 300.571 351.603C309.447 359.225 316.972 373.696 316.972 396.368C316.972 428.88 316.683 469.11 316.683 477.02C316.683 483.291 321.12 490.913 333.373 488.694C429.848 456.665 495.258 365.109 495.258 258.119C495.258 124.308 386.724 22.7202 252.913 22.7202ZM110.515 355.462C109.262 356.427 109.551 358.646 111.191 360.479C112.735 362.022 114.954 362.698 116.208 361.444C117.462 360.479 117.173 358.26 115.532 356.427C113.989 354.884 111.77 354.208 110.515 355.462ZM100.097 347.648C99.4212 348.902 100.386 350.445 102.315 351.41C103.859 352.375 105.789 352.086 106.464 350.735C107.139 349.481 106.174 347.937 104.245 346.972C102.315 346.394 100.772 346.683 100.097 347.648ZM131.354 381.993C129.811 383.247 130.39 386.142 132.608 387.974C134.827 390.193 137.625 390.483 138.88 388.939C140.134 387.685 139.554 384.791 137.625 382.957C135.503 380.739 132.608 380.449 131.354 381.993ZM120.357 367.811C118.813 368.776 118.813 371.284 120.357 373.503C121.9 375.722 124.504 376.687 125.759 375.722C127.303 374.467 127.303 371.96 125.759 369.74C124.408 367.521 121.9 366.557 120.357 367.811Z" fill="black"/>
</g>
<defs>
<clipPath id="clip0_169_574">
<rect width="512" height="512" fill="white"/>
</clipPath>
</defs>
</svg>
