<svg width="512" height="150" viewBox="0 0 512 150" fill="none" xmlns="http://www.w3.org/2000/svg">
<g clip-path="url(#clip0_169_553)">
<rect width="512" height="150" fill="white"/>
<path d="M62.3708 27.1772C57.6348 21.5582 53.6212 15.9392 52.7382 14.7351C52.6579 14.6549 52.4974 14.6549 52.4171 14.7351C51.6145 15.9392 47.5206 21.5582 42.7846 27.1772C2.32792 78.7915 49.126 113.63 49.126 113.63L49.5274 113.87C49.8485 119.248 50.7314 126.954 50.7314 126.954H52.4974H54.2634C54.2634 126.954 55.1464 119.248 55.4675 113.87L55.8688 113.549C56.0294 113.63 102.828 78.7915 62.3708 27.1772ZM52.5777 112.827C52.5777 112.827 50.4906 111.061 49.9288 110.097V110.017L52.4974 53.8272C52.4974 53.6667 52.7382 53.6667 52.7382 53.8272L55.307 110.017V110.097C54.745 111.061 52.5777 112.827 52.5777 112.827Z" fill="#00ED64"/>
<path d="M135.531 100.407L116.024 52.7259L115.944 52.5654H100.773V55.7763H103.261C103.984 55.7763 104.706 56.0974 105.268 56.579C105.83 57.1409 106.071 57.7831 106.071 58.5858L105.669 106.588C105.669 108.114 104.465 109.318 102.94 109.318L100.452 109.397V112.528H115.222V109.397L113.696 109.318C112.171 109.237 110.967 108.033 110.967 106.588V61.3953L132.239 112.609C132.56 113.331 133.282 113.813 134.005 113.813C134.808 113.813 135.531 113.331 135.771 112.609L156.561 62.5994L156.883 106.668C156.883 108.193 155.679 109.397 154.153 109.477H152.548V112.609H169.886V109.477H167.559C166.033 109.477 164.829 108.193 164.829 106.749L164.669 58.7464C164.669 57.2212 165.873 56.0171 167.398 55.9368L169.967 55.8565V52.6457H155.197L135.531 100.407ZM271.67 108.594C271.189 108.114 270.948 107.471 270.948 106.668V83.0685C270.948 78.5733 269.664 75.0413 267.014 72.553C264.446 70.0646 260.833 68.7802 256.338 68.7802C250.077 68.7802 245.101 71.3489 241.649 76.3257C241.568 76.406 241.488 76.4862 241.328 76.4862C241.167 76.4862 241.087 76.406 241.087 76.2455L239.481 69.9843H236.752L229.769 73.9979V76.1652H231.535C232.338 76.1652 233.06 76.406 233.542 76.8073C234.023 77.2087 234.264 77.9311 234.264 78.8141V106.588C234.264 107.39 234.023 108.033 233.542 108.515C233.06 108.996 232.418 109.237 231.615 109.237H229.849V112.448H245.904V109.237H244.137C243.335 109.237 242.692 108.996 242.211 108.515C241.729 108.033 241.488 107.39 241.488 106.588V88.2058C241.488 85.878 242.05 83.5501 243.014 81.2223C244.057 78.9746 245.502 77.1284 247.509 75.6033C249.516 74.1584 251.843 73.4359 254.573 73.4359C257.623 73.4359 259.95 74.3992 261.396 76.3257C262.84 78.2522 263.563 80.7406 263.563 83.7909V106.588C263.563 107.39 263.322 108.033 262.84 108.515C262.359 108.996 261.717 109.237 260.914 109.237H259.148V112.448H275.202V109.237H273.437C272.794 109.317 272.152 109.076 271.67 108.594ZM418.325 56.1776C413.911 53.8498 408.934 52.5654 403.556 52.5654H382.685V55.7763H384.692C385.495 55.7763 386.137 56.0974 386.859 56.8199C387.501 57.462 387.823 58.1844 387.823 58.9872V106.106C387.823 106.909 387.501 107.632 386.859 108.273C386.218 108.916 385.495 109.318 384.692 109.318H382.685V112.528H403.556C408.934 112.528 413.83 111.324 418.325 108.916C422.741 106.588 426.353 103.056 429.002 98.5608C431.651 94.0657 432.935 88.6875 432.935 82.5868C432.935 76.4863 431.571 71.1081 429.002 66.6129C426.353 62.1177 422.821 58.5858 418.325 56.1776ZM424.587 82.5066C424.587 88.1255 423.623 92.8616 421.617 96.6343C419.69 100.407 417.041 103.297 413.83 105.143C410.62 106.989 407.008 107.872 403.235 107.872H398.98C398.177 107.872 397.536 107.551 396.813 106.829C396.171 106.186 395.85 105.464 395.85 104.661V60.2714C395.85 59.4688 396.171 58.7464 396.813 58.1041C397.455 57.462 398.177 57.0606 398.98 57.0606H403.235C407.088 57.0606 410.62 57.9436 413.83 59.7898C417.041 61.6361 419.69 64.4456 421.617 68.2986C423.544 72.1516 424.587 76.9678 424.587 82.5066ZM482.302 85.7174C480.375 83.4699 476.602 81.6236 472.268 80.5801C478.288 77.5298 481.419 73.2754 481.419 67.8169C481.419 64.847 480.616 62.198 479.01 59.8701C477.405 57.6225 475.158 55.7763 472.349 54.4919C469.459 53.2077 466.168 52.5654 462.395 52.5654H438.715V55.7763H440.561C441.363 55.7763 442.086 56.0974 442.728 56.8199C443.37 57.462 443.771 58.1844 443.771 58.9872V106.106C443.771 106.909 443.451 107.632 442.728 108.273C442.086 108.916 441.363 109.318 440.561 109.318H438.474V112.528H464.161C468.094 112.528 471.706 111.885 474.997 110.522C478.288 109.237 480.938 107.311 482.783 104.742C484.71 102.173 485.673 99.1227 485.673 95.5105C485.834 91.6575 484.63 88.3664 482.302 85.7174ZM452.923 106.909C452.281 106.267 451.879 105.545 451.879 104.742V83.6304H464.081C468.415 83.6304 471.706 84.7542 473.954 86.9215C476.201 89.0888 477.405 91.9786 477.405 95.4302C477.405 97.5173 476.844 99.6044 475.88 101.451C474.837 103.377 473.392 104.902 471.385 106.106C469.378 107.311 466.97 107.872 464.081 107.872H455.09C454.288 107.872 453.645 107.632 452.923 106.909ZM451.959 79.1352V60.3517C451.959 59.549 452.281 58.8266 453.003 58.1844C453.645 57.5423 454.367 57.1409 455.17 57.1409H460.949C465.124 57.1409 468.174 58.1844 470.101 60.1912C472.027 62.2783 472.99 64.8469 472.99 68.1381C472.99 71.4291 472.107 74.1584 470.261 76.1652C468.495 78.172 465.766 79.1352 462.154 79.1352H451.959ZM210.504 71.5897C207.132 69.7435 203.44 68.7802 199.346 68.7802C195.252 68.7802 191.479 69.6632 188.188 71.5897C184.817 73.4359 182.168 76.0849 180.242 79.4563C178.315 82.8277 177.271 86.761 177.271 91.0956C177.271 95.4302 178.235 99.3635 180.242 102.735C182.248 106.106 184.817 108.755 188.188 110.602C191.559 112.448 195.252 113.411 199.346 113.411C203.44 113.411 207.212 112.528 210.504 110.602C213.875 108.755 216.524 106.106 218.451 102.735C220.377 99.3635 221.42 95.4302 221.42 91.0956C221.42 86.761 220.458 82.8277 218.451 79.4563C216.524 76.0849 213.875 73.4359 210.504 71.5897ZM213.714 91.0956C213.714 96.4738 212.43 100.808 209.781 103.939C207.212 107.069 203.681 108.675 199.346 108.675C195.011 108.675 191.479 107.069 188.911 103.939C186.262 100.808 184.977 96.4738 184.977 91.0956C184.977 85.7175 186.262 81.3828 188.911 78.2522C191.479 75.1216 195.011 73.5162 199.346 73.5162C203.681 73.5162 207.212 75.1216 209.781 78.2522C212.43 81.3828 213.714 85.7175 213.714 91.0956ZM364.785 71.5897C361.413 69.7435 357.721 68.7802 353.627 68.7802C349.614 68.7802 345.76 69.6632 342.469 71.5897C339.098 73.4359 336.449 76.0849 334.523 79.4563C332.596 82.8277 331.553 86.761 331.553 91.0956C331.553 95.4302 332.516 99.3635 334.523 102.735C336.449 106.106 339.098 108.755 342.469 110.602C345.841 112.448 349.533 113.411 353.627 113.411C357.64 113.411 361.494 112.528 364.785 110.602C368.157 108.755 370.805 106.106 372.732 102.735C374.658 99.3635 375.702 95.4302 375.702 91.0956C375.702 86.761 374.739 82.8277 372.732 79.4563C370.805 76.0849 368.076 73.4359 364.785 71.5897ZM367.996 91.0956C367.996 96.4738 366.711 100.808 364.063 103.939C361.494 107.069 357.962 108.675 353.627 108.675C349.293 108.675 345.76 107.069 343.192 103.939C340.543 100.808 339.259 96.4738 339.259 91.0956C339.259 85.7175 340.543 81.3828 343.192 78.2522C345.76 75.1216 349.293 73.5162 353.627 73.5162C357.962 73.5162 361.494 75.1216 364.063 78.2522C366.631 81.3828 367.996 85.7175 367.996 91.0956ZM302.575 68.7802C299.043 68.7802 295.832 69.5026 292.942 71.0278C290.052 72.553 287.805 74.5597 286.119 77.1284C284.514 79.6971 283.631 82.5065 283.631 85.5569C283.631 88.2861 284.273 90.7746 285.477 93.0221C286.681 95.1894 288.367 96.9554 290.454 98.4806L284.192 106.989C283.39 108.033 283.309 109.477 283.871 110.602C284.514 111.806 285.638 112.448 286.922 112.448H288.687C286.922 113.652 285.557 115.017 284.594 116.702C283.47 118.548 282.908 120.555 282.908 122.562C282.908 126.334 284.594 129.466 287.885 131.793C291.096 134.121 295.671 135.325 301.451 135.325C305.464 135.325 309.237 134.683 312.689 133.399C316.221 132.114 319.03 130.268 321.117 127.78C323.285 125.291 324.328 122.321 324.328 118.95C324.328 115.338 323.044 112.849 319.913 110.361C317.265 108.273 313.171 107.23 308.033 107.23H290.534C290.454 107.23 290.454 107.15 290.454 107.15C290.454 107.15 290.373 107.069 290.454 106.989L295.029 100.889C296.233 101.451 297.357 101.772 298.401 102.012C299.444 102.253 300.648 102.334 301.932 102.334C305.625 102.334 308.916 101.611 311.806 100.086C314.696 98.5608 317.023 96.5541 318.709 93.9854C320.395 91.4167 321.198 88.6072 321.198 85.5569C321.198 82.346 319.592 76.406 315.337 73.3556C315.337 73.2754 315.418 73.2754 315.418 73.2754L324.81 74.3189V69.9843H309.719C307.551 69.2618 305.143 68.7802 302.575 68.7802ZM307.793 96.233C306.107 97.1159 304.34 97.5976 302.495 97.5976C299.524 97.5976 296.956 96.5541 294.788 94.467C292.621 92.38 291.497 89.4099 291.497 85.5569C291.497 81.7039 292.621 78.6536 294.788 76.6468C296.956 74.5598 299.605 73.5162 302.495 73.5162C304.34 73.5162 306.107 73.9176 307.793 74.8808C309.478 75.7638 310.842 77.1284 311.886 78.8943C312.929 80.6603 313.492 82.908 313.492 85.5569C313.492 88.2058 312.929 90.4535 311.886 92.2195C310.923 93.9854 309.478 95.35 307.793 96.233ZM295.912 112.367H307.793C311.084 112.367 313.171 113.01 314.615 114.454C315.98 115.819 316.702 117.746 316.702 119.913C316.702 123.124 315.418 125.773 312.849 127.699C310.281 129.706 306.909 130.67 302.655 130.67C298.962 130.67 295.912 129.867 293.664 128.261C291.417 126.655 290.293 124.247 290.293 121.198C290.293 119.27 290.855 117.505 291.899 115.9C293.023 114.294 294.307 113.17 295.912 112.367Z" fill="#001E2B"/>
</g>
<defs>
<clipPath id="clip0_169_553">
<rect width="512" height="150" fill="white"/>
</clipPath>
</defs>
</svg>
