<svg width="512" height="267" viewBox="0 0 512 267" fill="none" xmlns="http://www.w3.org/2000/svg">
<g clip-path="url(#clip0_168_517)">
<rect y="0.5" width="512" height="266" fill="white"/>
<path d="M27.0242 230.659H42.1112V171.103L65.4673 223.04C68.2222 229.301 71.9967 231.551 79.3938 231.551C86.7908 231.551 90.4178 229.326 93.1771 223.04L116.535 171.103V230.681H131.625V171.201C131.625 165.398 129.299 162.592 124.514 161.143C113.054 157.565 105.364 160.66 101.885 168.397L78.9644 219.655L56.7644 168.374C53.4281 160.638 45.595 157.543 34.135 161.121C29.3452 162.571 27.0242 165.378 27.0242 171.179V230.659ZM144.165 182.167H159.248V214.993C159.106 216.777 159.82 220.963 168.085 221.09C172.302 221.157 200.628 221.09 200.892 221.09V182.003H216.008C216.075 182.003 215.993 235.298 215.996 235.526C216.078 248.67 199.685 251.526 192.131 251.747H144.494V241.595L192.217 241.593C201.926 240.565 200.781 235.741 200.781 234.116V230.158H168.715C153.796 230.024 144.296 223.51 144.178 216.019C144.167 215.348 144.5 182.489 144.169 182.164L144.165 182.167Z" fill="#00618A"/>
<path d="M227.639 230.659H271.015C276.09 230.659 281.026 229.596 284.945 227.756C291.475 224.76 294.666 220.697 294.666 215.377V204.353C294.666 199.999 291.039 195.938 283.933 193.231C280.16 191.778 275.518 191.006 271.022 191.006H252.741C246.65 191.006 243.747 189.168 243.023 185.107C242.878 184.624 242.878 184.212 242.878 183.752V176.887C242.878 176.5 242.878 176.111 243.023 175.628C243.747 172.534 245.344 171.662 250.711 171.156C251.147 171.156 251.726 171.058 252.164 171.058H295.249V161.002H252.889C246.796 161.002 243.604 161.389 240.702 162.258C231.699 165.065 227.782 169.537 227.782 177.274V186.075C227.782 192.846 235.474 198.649 248.381 200.002C249.834 200.098 251.283 200.194 252.732 200.194H268.401C268.982 200.194 269.564 200.194 269.998 200.293C274.783 200.679 276.818 201.549 278.267 203.289C279.161 204.183 279.429 205.033 279.429 205.972V214.774C279.429 215.838 278.705 217.193 277.253 218.351C275.947 219.514 273.772 220.285 270.87 220.48C270.288 220.48 269.854 220.576 269.275 220.576H227.639V230.634V230.659ZM388.781 213.155C388.781 223.503 396.469 229.306 411.992 230.467C413.44 230.578 414.891 230.643 416.344 230.659H455.659V220.601H416.053C407.205 220.601 403.866 218.376 403.866 213.056V161.022H388.779V213.15L388.781 213.155ZM304.29 213.678V177.822C304.29 168.712 310.686 163.187 323.333 161.443C324.681 161.249 326.042 161.153 327.405 161.152H356.043C357.453 161.153 358.862 161.249 360.26 161.443C372.908 163.187 379.303 168.71 379.303 177.822V213.678C379.303 221.068 376.586 225.024 370.324 227.602L385.186 241.018H367.668L355.645 230.164L343.54 230.932H327.405C324.643 230.932 321.737 230.543 318.536 229.671C308.921 227.054 304.292 222.014 304.292 213.678H304.29ZM320.576 212.784C320.576 213.268 320.721 213.751 320.866 214.335C321.761 218.503 325.663 220.829 331.6 220.829H345.307L332.718 209.462H350.235L361.192 219.376C363.216 218.298 364.546 216.648 364.994 214.529C365.139 214.046 365.139 213.562 365.139 213.076V178.696C365.139 178.309 365.139 177.802 364.994 177.339C364.099 173.464 360.195 171.234 354.381 171.234H331.626C324.918 171.234 320.58 174.141 320.58 178.696V212.81L320.576 212.784Z" fill="#E48E00"/>
<path d="M468.932 144.336C459.66 144.086 452.573 144.946 446.518 147.5C444.796 148.227 442.053 148.245 441.771 150.402C442.716 151.393 442.867 152.874 443.615 154.092C445.062 156.434 447.506 159.57 449.682 161.212C452.061 163.008 454.512 164.931 457.068 166.489C461.607 169.257 466.674 170.839 471.043 173.609C473.619 175.241 476.177 177.298 478.691 179.145C479.932 180.058 480.77 181.475 482.38 182.046V181.782C481.531 180.702 481.314 179.217 480.536 178.093L477.108 174.664C473.753 170.192 469.5 166.308 464.977 163.059C461.37 160.469 453.296 156.972 451.79 152.773L451.527 152.509C454.085 152.218 457.079 151.295 459.442 150.665C463.407 149.602 466.951 149.875 471.048 148.819L476.587 147.236V146.181C474.516 144.056 473.041 141.246 470.784 139.325C464.881 134.294 458.434 129.274 451.799 125.081C448.119 122.755 443.57 121.248 439.669 119.279C438.356 118.617 436.051 118.272 435.185 117.168C433.137 114.556 432.021 111.242 430.44 108.223C427.131 101.85 423.879 94.8868 420.946 88.1808C418.945 83.6079 417.636 79.0977 415.145 74.9944C403.171 55.3078 390.28 43.4251 370.316 31.7482C366.067 29.2661 360.954 28.2822 355.547 27.0009L346.844 26.4732C345.073 25.7353 343.23 23.5662 341.566 22.5153C334.952 18.3338 317.986 9.24846 313.087 21.1736C309.994 28.716 317.709 36.075 320.471 39.8988C322.408 42.5821 324.89 45.5852 326.272 48.6017C327.181 50.5829 327.34 52.5708 328.119 54.6682C330.034 59.8113 331.703 65.453 334.183 70.2271C335.435 72.6421 336.817 75.1867 338.402 77.3468C339.375 78.6728 341.041 79.2565 341.303 81.3047C339.675 83.5856 339.581 87.1186 338.664 90.0077C334.542 103.004 336.097 119.155 342.092 128.775C343.932 131.726 348.263 138.059 354.223 135.631C359.433 133.506 358.248 126.932 359.761 121.127C360.097 119.808 359.891 118.847 360.553 117.964V118.228L365.301 127.719C368.811 133.377 375.05 139.292 380.332 143.283C383.07 145.352 385.251 148.929 388.771 150.139V149.875H388.507C387.82 148.801 386.747 148.361 385.868 147.504C383.804 145.481 381.508 142.965 379.801 140.649C374.994 134.124 370.749 126.986 366.881 119.551C365.034 116.002 363.427 112.087 361.872 108.475C361.273 107.083 361.28 104.978 360.028 104.256C358.321 106.904 355.808 109.042 354.488 112.168C352.378 117.163 352.105 123.254 351.325 129.574C350.862 129.739 351.067 129.625 350.797 129.837C347.125 128.952 345.833 125.17 344.469 121.926C341.016 113.72 340.377 100.513 343.414 91.072C344.196 88.6302 347.752 80.9335 346.313 78.6773C345.627 76.4255 343.362 75.0995 342.094 73.4001C340.529 71.2758 338.959 68.4717 337.874 66.0165C335.048 59.6212 333.729 52.4433 330.754 45.9743C329.332 42.884 326.931 39.7579 324.954 37.0298C322.767 33.9887 320.319 31.7437 318.626 28.0854C318.022 26.7773 317.204 24.6865 318.098 23.3382C318.184 22.9508 318.378 22.5959 318.659 22.3153C318.939 22.0348 319.294 21.8404 319.681 21.755C321.211 20.5766 325.473 22.1463 327.065 22.8104C331.291 24.568 334.824 26.2406 338.406 28.6131C340.128 29.7312 341.866 31.9584 343.943 32.571H346.313C350.025 33.4252 354.184 32.8394 357.65 33.8903C363.782 35.753 369.274 38.6533 374.265 41.8017C389.466 51.3991 401.892 65.0617 410.394 81.3808C411.762 84.0037 412.353 86.5104 413.557 89.2921C415.989 94.8824 419.049 100.681 421.469 106.168C423.884 111.646 426.232 117.169 429.644 121.727C431.437 124.119 438.365 125.407 441.511 126.736C443.718 127.668 447.332 128.641 449.423 129.9C453.414 132.308 457.282 135.177 461.028 137.816C462.899 139.135 468.653 142.026 468.94 144.408L468.932 144.336Z" fill="#00618A"/>
<path fill-rule="evenodd" clip-rule="evenodd" d="M351.058 43.8635C349.124 43.8277 347.758 44.0737 346.311 44.3912V44.6551H346.575C347.497 46.5513 349.124 47.77 350.265 49.4023L352.903 54.9389L353.167 54.6751C354.8 53.5235 355.548 51.6831 355.538 48.8724C354.882 48.1836 354.786 47.3205 354.218 46.4976C353.464 45.4019 351.982 44.7803 351.054 43.859L351.058 43.8635Z" fill="#00618A"/>
<path fill-rule="evenodd" clip-rule="evenodd" d="M462.74 220.315C462.74 226.956 467.989 231.433 473.858 231.433C479.728 231.433 484.976 226.956 484.976 220.315C484.976 213.673 479.728 209.197 473.858 209.197C467.989 209.197 462.74 213.673 462.74 220.315ZM482.485 220.315C482.485 225.355 478.633 229.12 473.854 229.12C469.024 229.12 465.222 225.355 465.222 220.315C465.222 215.275 469.019 211.509 473.854 211.509C478.628 211.509 482.485 215.275 482.485 220.315ZM476.85 226.661H479.339L475.694 221.088C477.65 220.88 479.131 219.93 479.131 217.618C479.131 215.037 477.498 213.973 474.359 213.973H469.406V226.663H471.541V221.178H473.527L476.848 226.663L476.85 226.661ZM471.541 219.393V215.749H474.002C475.277 215.749 476.819 215.986 476.819 217.47C476.819 219.248 475.426 219.398 473.823 219.398H471.541V219.393Z" fill="#E48E00"/>
</g>
<defs>
<clipPath id="clip0_168_517">
<rect width="512" height="267" fill="white"/>
</clipPath>
</defs>
</svg>
