<svg width="512" height="316" viewBox="0 0 512 316" fill="none" xmlns="http://www.w3.org/2000/svg">
<g clip-path="url(#clip0_169_558)">
<rect y="0.710938" width="512" height="315" fill="white"/>
<path d="M253.456 301.577C251.866 301.577 250.382 301.154 249.004 300.411L234.906 292.038C232.786 290.872 233.846 290.448 234.482 290.236C237.344 289.282 237.874 289.07 240.842 287.373C241.16 287.162 241.584 287.268 241.902 287.48L252.714 293.946C253.138 294.157 253.668 294.157 253.986 293.946L296.28 269.46C296.704 269.247 296.916 268.823 296.916 268.294V219.428C296.916 218.897 296.704 218.473 296.28 218.262L253.986 193.881C253.562 193.669 253.032 193.669 252.714 193.881L210.42 218.262C209.996 218.473 209.784 219.003 209.784 219.428V268.294C209.784 268.717 209.996 269.247 210.42 269.46L221.974 276.138C228.228 279.318 232.15 275.608 232.15 271.897V223.667C232.15 223.032 232.68 222.395 233.422 222.395H238.828C239.464 222.395 240.1 222.925 240.1 223.667V271.897C240.1 280.271 235.542 285.148 227.592 285.148C225.154 285.148 223.246 285.148 217.84 282.498L206.709 276.138C203.954 274.548 202.258 271.579 202.258 268.399V219.534C202.258 216.354 203.954 213.385 206.709 211.795L249.004 187.309C251.654 185.826 255.258 185.826 257.908 187.309L300.202 211.795C302.958 213.385 304.654 216.354 304.654 219.534V268.399C304.654 271.579 302.958 274.548 300.202 276.138L257.908 300.624C256.53 301.259 254.94 301.577 253.456 301.577ZM266.494 267.975C247.944 267.975 244.128 259.496 244.128 252.288C244.128 251.652 244.658 251.015 245.4 251.015H250.912C251.548 251.015 252.078 251.439 252.078 252.075C252.926 257.693 255.364 260.449 266.6 260.449C275.504 260.449 279.32 258.435 279.32 253.665C279.32 250.909 278.26 248.895 264.374 247.518C252.82 246.352 245.612 243.807 245.612 234.586C245.612 225.999 252.82 220.911 264.904 220.911C278.472 220.911 285.15 225.575 285.998 235.752C285.998 236.07 285.893 236.387 285.68 236.705C285.468 236.918 285.15 237.129 284.832 237.129H279.32C278.79 237.129 278.26 236.705 278.154 236.176C276.882 230.345 273.596 228.437 264.904 228.437C255.152 228.437 253.986 231.83 253.986 234.373C253.986 237.447 255.364 238.401 268.508 240.098C281.546 241.793 287.694 244.231 287.694 253.347C287.588 262.676 279.957 267.975 266.494 267.975Z" fill="#539E43"/>
<path d="M122.228 110.459C122.228 108.551 121.167 106.749 119.472 105.795L74.5275 79.9311C73.7855 79.5071 72.9375 79.2951 72.0894 79.1891H71.6655C70.8175 79.1891 69.9695 79.5071 69.2275 79.9311L24.2833 105.795C22.5873 106.749 21.5273 108.551 21.5273 110.459L21.6333 179.995C21.6333 180.949 22.1633 181.904 23.0113 182.328C23.8593 182.857 24.9194 182.857 25.6614 182.328L52.3734 167.063C54.0694 166.11 55.1295 164.307 55.1295 162.399V129.857C55.1295 127.949 56.1895 126.147 57.8854 125.193L69.2275 118.621C70.0755 118.091 71.0295 117.879 71.9835 117.879C72.9375 117.879 73.8915 118.091 74.6335 118.621L85.9755 125.193C87.6715 126.147 88.7315 127.949 88.7315 129.857V162.399C88.7315 164.307 89.7916 166.11 91.4876 167.063L118.2 182.328C119.048 182.857 120.108 182.857 120.956 182.328C121.804 181.904 122.333 180.949 122.333 179.995L122.228 110.459Z" fill="#333333"/>
<path d="M338.256 14.7409C337.408 14.3169 336.348 14.3169 335.606 14.7409C334.758 15.2709 334.229 16.1189 334.229 17.0729V85.973C334.229 86.609 333.91 87.245 333.274 87.669C332.639 87.987 332.002 87.987 331.367 87.669L320.13 81.2031C318.434 80.2491 316.42 80.2491 314.724 81.2031L269.78 107.173C268.084 108.127 267.024 109.929 267.024 111.838V163.672C267.024 165.579 268.084 167.381 269.78 168.335L314.724 194.305C316.42 195.259 318.434 195.259 320.13 194.305L365.075 168.335C366.77 167.381 367.831 165.579 367.831 163.672V34.4569C367.831 32.4429 366.77 30.6409 365.075 29.6869L338.256 14.7409ZM334.122 146.605C334.122 147.135 333.91 147.559 333.486 147.771L318.116 156.675C317.692 156.887 317.163 156.887 316.739 156.675L301.368 147.771C300.945 147.559 300.732 147.03 300.732 146.605V128.797C300.732 128.267 300.945 127.843 301.368 127.631L316.739 118.727C317.163 118.515 317.692 118.515 318.116 118.727L333.486 127.631C333.91 127.843 334.122 128.373 334.122 128.797V146.605Z" fill="#333333"/>
<path d="M487.823 128.373C489.518 127.419 490.473 125.617 490.473 123.71V111.096C490.473 109.187 489.413 107.385 487.823 106.431L443.196 80.5672C441.501 79.6132 439.487 79.6132 437.79 80.5672L392.847 106.537C391.151 107.492 390.09 109.293 390.09 111.201V163.035C390.09 164.944 391.151 166.745 392.847 167.7L437.473 193.139C439.169 194.094 441.182 194.094 442.772 193.139L469.802 178.087C470.651 177.663 471.181 176.71 471.181 175.755C471.181 174.802 470.651 173.847 469.802 173.423L424.646 147.454C423.798 146.923 423.269 146.075 423.269 145.122V128.904C423.269 127.949 423.798 126.995 424.646 126.571L438.745 118.515C439.593 117.985 440.653 117.985 441.501 118.515L455.599 126.571C456.447 127.101 456.977 127.949 456.977 128.904V141.623C456.977 142.577 457.506 143.532 458.354 143.956C459.203 144.485 460.262 144.485 461.11 143.956L487.823 128.373Z" fill="#333333"/>
<path d="M439.805 125.935C440.122 125.724 440.546 125.724 440.864 125.935L449.451 130.917C449.769 131.129 449.98 131.447 449.98 131.871V141.835C449.98 142.259 449.769 142.577 449.451 142.789L440.864 147.771C440.546 147.983 440.122 147.983 439.805 147.771L431.219 142.789C430.9 142.577 430.688 142.259 430.688 141.835V131.871C430.688 131.447 430.9 131.129 431.219 130.917L439.805 125.935Z" fill="#539E43"/>
<mask id="mask0_169_558" style="mask-type:alpha" maskUnits="userSpaceOnUse" x="144" y="80" width="101" height="114">
<path d="M197.382 80.779C195.686 79.825 193.672 79.825 191.976 80.779L147.349 106.537C145.654 107.491 144.7 109.293 144.7 111.201V162.823C144.7 164.731 145.759 166.533 147.349 167.487L191.976 193.245C193.672 194.2 195.686 194.2 197.382 193.245L242.008 167.487C243.704 166.533 244.658 164.731 244.658 162.823V111.201C244.658 109.293 243.598 107.491 242.008 106.537L197.382 80.779Z" fill="white"/>
</mask>
<g mask="url(#mask0_169_558)">
<path d="M197.382 80.779C195.686 79.825 193.672 79.825 191.976 80.779L147.349 106.537C145.654 107.491 144.7 109.293 144.7 111.201V162.823C144.7 164.731 145.759 166.533 147.349 167.487L191.976 193.245C193.672 194.2 195.686 194.2 197.382 193.245L242.008 167.487C243.704 166.533 244.658 164.731 244.658 162.823V111.201C244.658 109.293 243.598 107.491 242.008 106.537L197.382 80.779Z" fill="url(#paint0_linear_169_558)"/>
<path d="M242.114 106.537L197.276 80.7789C196.852 80.5669 196.322 80.355 195.898 80.2489L145.654 166.321C146.078 166.852 146.608 167.276 147.138 167.593L191.976 193.352C193.247 194.093 194.732 194.305 196.11 193.881L243.28 107.597C242.962 107.173 242.538 106.855 242.114 106.537Z" fill="url(#paint1_linear_169_558)"/>
<path fill-rule="evenodd" clip-rule="evenodd" d="M242.22 167.487C243.492 166.745 244.446 165.473 244.87 164.096L195.686 80.143C194.413 79.931 193.036 80.0369 191.87 80.779L147.349 106.431L195.368 193.987C196.003 193.881 196.746 193.669 197.382 193.352L242.22 167.487Z" fill="url(#paint2_linear_169_558)"/>
<path fill-rule="evenodd" clip-rule="evenodd" d="M242.22 167.487L197.488 193.245C196.852 193.563 196.216 193.776 195.474 193.881L196.322 195.471L245.93 166.745V166.109L244.658 163.989C244.446 165.473 243.492 166.745 242.22 167.487Z" fill="url(#paint3_linear_169_558)"/>
<path fill-rule="evenodd" clip-rule="evenodd" d="M242.22 167.487L197.488 193.245C196.852 193.563 196.216 193.776 195.474 193.881L196.322 195.471L245.93 166.745V166.109L244.658 163.989C244.446 165.473 243.492 166.745 242.22 167.487Z" fill="url(#paint4_linear_169_558)"/>
</g>
</g>
<defs>
<linearGradient id="paint0_linear_169_558" x1="212.86" y1="99.9806" x2="163.943" y2="176.84" gradientUnits="userSpaceOnUse">
<stop stop-color="#41873F"/>
<stop offset="0.3288" stop-color="#418B3D"/>
<stop offset="0.6352" stop-color="#419637"/>
<stop offset="0.9319" stop-color="#3FA92D"/>
<stop offset="1" stop-color="#3FAE2A"/>
</linearGradient>
<linearGradient id="paint1_linear_169_558" x1="187.903" y1="143.058" x2="310.406" y2="76.502" gradientUnits="userSpaceOnUse">
<stop offset="0.1376" stop-color="#41873F"/>
<stop offset="0.4032" stop-color="#54A044"/>
<stop offset="0.7136" stop-color="#66B848"/>
<stop offset="0.9081" stop-color="#6CC04A"/>
</linearGradient>
<linearGradient id="paint2_linear_169_558" x1="143.069" y1="137.014" x2="246.332" y2="137.014" gradientUnits="userSpaceOnUse">
<stop offset="0.0919165" stop-color="#6CC04A"/>
<stop offset="0.2864" stop-color="#66B848"/>
<stop offset="0.5968" stop-color="#54A044"/>
<stop offset="0.8624" stop-color="#41873F"/>
</linearGradient>
<linearGradient id="paint3_linear_169_558" x1="143.069" y1="179.817" x2="246.332" y2="179.817" gradientUnits="userSpaceOnUse">
<stop offset="0.0919165" stop-color="#6CC04A"/>
<stop offset="0.2864" stop-color="#66B848"/>
<stop offset="0.5968" stop-color="#54A044"/>
<stop offset="0.8624" stop-color="#41873F"/>
</linearGradient>
<linearGradient id="paint4_linear_169_558" x1="261.376" y1="97.5402" x2="235.216" y2="234.62" gradientUnits="userSpaceOnUse">
<stop stop-color="#41873F"/>
<stop offset="0.3288" stop-color="#418B3D"/>
<stop offset="0.6352" stop-color="#419637"/>
<stop offset="0.9319" stop-color="#3FA92D"/>
<stop offset="1" stop-color="#3FAE2A"/>
</linearGradient>
<clipPath id="clip0_169_558">
<rect width="512" height="316" fill="white"/>
</clipPath>
</defs>
</svg>
