<svg width="512" height="512" viewBox="0 0 512 512" fill="none" xmlns="http://www.w3.org/2000/svg">
<g clip-path="url(#clip0_160_178)">
<path d="M162.308 494.643L171.181 438.28L151.415 437.822H57.03L122.623 21.9208C122.826 20.6653 123.488 19.4946 124.455 18.6632C125.422 17.8319 126.661 17.3738 127.95 17.3738H287.097C339.93 17.3738 376.392 28.3681 395.428 50.0683C404.353 60.2483 410.036 70.8863 412.785 82.5932C415.669 94.877 415.72 109.553 412.904 127.453L412.7 128.759V140.229L421.624 145.285C429.141 149.272 435.113 153.836 439.694 159.062C447.329 167.765 452.266 178.828 454.353 191.943C456.508 205.431 455.795 221.482 452.266 239.653C448.194 260.556 441.611 278.761 432.721 293.657C424.543 307.383 414.125 318.768 401.757 327.59C389.948 335.972 375.917 342.334 360.053 346.406C344.681 350.41 327.155 352.429 307.932 352.429H295.546C286.689 352.429 278.087 355.619 271.335 361.337C264.565 367.173 260.086 375.148 258.712 383.868L257.778 388.941L242.101 488.281L241.389 491.929C241.202 493.082 240.88 493.659 240.405 494.049C239.98 494.406 239.37 494.643 238.776 494.643H162.308Z" fill="#253B80"/>
<path d="M430.074 130.083C429.599 133.12 429.056 136.225 428.445 139.414C407.457 247.169 335.655 284.394 243.951 284.394H197.259C186.044 284.394 176.593 292.537 174.846 303.6L150.94 455.213L144.17 498.189C143.034 505.451 148.633 512 155.962 512H238.776C248.583 512 256.913 504.874 258.457 495.203L259.272 490.995L274.864 392.046L275.865 386.617C277.392 376.912 285.739 369.786 295.546 369.786H307.932C388.166 369.786 450.977 337.21 469.334 242.944C477.003 203.565 473.033 170.684 452.741 147.558C446.599 140.585 438.981 134.799 430.074 130.083Z" fill="#179BD7"/>
<path d="M408.119 121.328C404.912 120.395 401.604 119.546 398.211 118.783C394.8 118.036 391.305 117.375 387.708 116.798C375.119 114.762 361.325 113.795 346.547 113.795H221.809C218.738 113.795 215.82 114.49 213.207 115.746C207.456 118.511 203.18 123.958 202.145 130.625L175.609 298.696L174.846 303.599C176.593 292.537 186.044 284.393 197.259 284.393H243.951C335.655 284.393 407.457 247.152 428.445 139.414C429.073 136.224 429.599 133.119 430.074 130.082C424.763 127.266 419.012 124.857 412.819 122.804C411.292 122.295 409.714 121.803 408.119 121.328Z" fill="#222D65"/>
<path d="M202.145 130.626C203.18 123.958 207.455 118.511 213.207 115.763C215.837 114.507 218.738 113.812 221.809 113.812H346.547C361.325 113.812 375.119 114.779 387.708 116.815C391.305 117.392 394.8 118.053 398.21 118.8C401.604 119.563 404.912 120.412 408.119 121.345C409.714 121.82 411.292 122.312 412.836 122.804C419.028 124.857 424.78 127.283 430.091 130.083C436.334 90.2621 430.04 63.1495 408.509 38.5989C384.773 11.5712 341.932 0 287.113 0H127.967C116.769 0 107.217 8.14395 105.486 19.2231L39.198 439.4C37.8916 447.714 44.305 455.213 52.6865 455.213H150.94L175.609 298.696L202.145 130.626Z" fill="#253B80"/>
</g>
<defs>
<clipPath id="clip0_160_178">
<rect width="512" height="512" fill="white"/>
</clipPath>
</defs>
</svg>
