<svg width="512" height="270" viewBox="0 0 512 270" fill="none" xmlns="http://www.w3.org/2000/svg">
<g clip-path="url(#clip0_163_208)">
<path d="M0 134.665C0 209.038 114.617 269.331 256 269.331C397.382 269.331 512 209.038 512 134.665C512 60.293 397.382 -0.000433873 256 -0.000433873C114.617 -0.000433873 0 60.293 0 134.665Z" fill="url(#paint0_radial_163_208)"/>
<path d="M256 259.332C391.859 259.332 501.999 203.517 501.999 134.665C501.999 65.814 391.859 9.99741 256 9.99741C120.14 9.99741 10 65.814 10 134.665C10 203.517 120.14 259.332 256 259.332Z" fill="#777BB3"/>
<path d="M139.087 150.122C150.258 150.122 158.598 148.062 163.875 144.001C169.095 139.981 172.701 133.017 174.591 123.303C176.353 114.224 175.682 107.884 172.596 104.463C169.442 100.968 162.621 99.1961 152.325 99.1961H134.472L124.575 150.122H139.087ZM80.6956 212.853C79.8669 212.853 79.0799 212.483 78.553 211.842C78.0252 211.202 77.8113 210.36 77.9697 209.546L104.199 74.5915C104.453 73.2869 105.596 72.3443 106.926 72.3443H163.457C181.224 72.3443 194.448 77.1683 202.76 86.6841C211.117 96.2498 213.697 109.621 210.43 126.426C209.1 133.272 206.813 139.63 203.632 145.323C200.448 151.022 196.24 156.295 191.122 160.999C184.996 166.732 178.063 170.889 170.533 173.336C163.123 175.75 153.607 176.974 142.248 176.974H119.358L112.821 210.605C112.567 211.911 111.424 212.853 110.095 212.853H80.6956Z" fill="black"/>
<path d="M136.762 101.973H152.325C164.752 101.973 169.069 104.7 170.535 106.325C172.969 109.023 173.428 114.712 171.864 122.776C170.107 131.804 166.849 138.205 162.181 141.799C157.401 145.479 149.631 147.344 139.087 147.344H127.945L136.762 101.973ZM163.458 69.5661H106.925C104.266 69.5661 101.98 71.4512 101.473 74.0614L75.2429 209.016C74.9263 210.645 75.354 212.329 76.4087 213.609C77.4642 214.89 79.0364 215.631 80.6957 215.631H110.094C112.754 215.631 115.04 213.745 115.547 211.135L121.647 179.751H142.248C153.898 179.751 163.706 178.481 171.396 175.976C179.304 173.407 186.58 169.05 193.02 163.028C198.345 158.128 202.733 152.628 206.057 146.679C209.382 140.728 211.77 134.092 213.157 126.955C216.596 109.266 213.802 95.1012 204.852 84.8568C195.989 74.7105 182.061 69.5661 163.458 69.5661ZM121.205 152.899H139.087C150.94 152.899 159.769 150.667 165.57 146.201C171.371 141.734 175.284 134.28 177.318 123.834C179.263 113.804 178.377 106.726 174.659 102.603C170.937 98.4799 163.494 96.4179 152.325 96.4179H132.183L121.205 152.899M163.458 75.1216C180.464 75.1216 192.87 79.5846 200.669 88.5114C208.466 97.4382 210.814 109.898 207.703 125.896C206.422 132.485 204.257 138.51 201.208 143.969C198.155 149.431 194.169 154.425 189.243 158.954C183.372 164.447 176.851 168.362 169.675 170.694C162.499 173.032 153.359 174.196 142.248 174.196H117.067L110.094 210.075H80.6957L106.925 75.1216H163.458" fill="white"/>
<path d="M277.836 176.974C277.006 176.974 276.22 176.603 275.693 175.963C275.164 175.323 274.95 174.481 275.109 173.666L286.711 113.954C287.815 108.276 287.543 104.2 285.946 102.478C284.968 101.425 282.031 99.6591 273.347 99.6591H252.326L237.738 174.726C237.485 176.031 236.341 176.974 235.012 176.974H205.845C205.015 176.974 204.229 176.603 203.701 175.963C203.174 175.323 202.96 174.48 203.118 173.666L229.348 38.712C229.601 37.4073 230.745 36.4648 232.075 36.4648H261.241C262.071 36.4648 262.857 36.8351 263.385 37.4749C263.912 38.1157 264.126 38.9573 263.968 39.7722L257.638 72.3443H280.251C297.478 72.3443 309.16 75.3813 315.963 81.6295C322.898 88.0035 325.062 98.1952 322.396 111.925L310.192 174.726C309.938 176.031 308.796 176.974 307.465 176.974H277.836Z" fill="black"/>
<path d="M261.241 33.6864H232.075C229.414 33.6864 227.128 35.5716 226.621 38.1818L200.391 173.136C200.075 174.765 200.502 176.449 201.558 177.73C202.614 179.01 204.186 179.751 205.845 179.751H235.012C237.671 179.751 239.958 177.866 240.465 175.256L254.616 102.436H273.347C282.016 102.436 283.836 104.288 283.909 104.368C284.435 104.934 285.126 107.554 283.985 113.424L272.382 173.136C272.065 174.765 272.493 176.449 273.549 177.73C274.604 179.01 276.176 179.751 277.836 179.751H307.465C310.124 179.751 312.412 177.866 312.919 175.256L325.122 112.455C327.986 97.7132 325.536 86.6548 317.843 79.5845C310.502 72.8428 298.206 69.566 280.251 69.566H261.007L266.695 40.3022C267.011 38.6735 266.584 36.9883 265.528 35.7086C264.473 34.4281 262.901 33.6864 261.241 33.6864ZM261.241 39.242L254.268 75.1215H280.251C296.6 75.1215 307.877 77.9752 314.084 83.6752C320.29 89.3789 322.149 98.6206 319.669 111.396L307.465 174.195H277.836L289.438 114.484C290.759 107.692 290.274 103.059 287.981 100.588C285.687 98.1178 280.809 96.8808 273.347 96.8808H250.036L235.012 174.195H205.845L232.075 39.242H261.241Z" fill="white"/>
<path d="M368.545 150.122C379.717 150.122 388.056 148.062 393.333 144.001C398.554 139.982 402.159 133.018 404.05 123.303C405.812 114.224 405.141 107.884 402.055 104.463C398.9 100.968 392.08 99.1961 381.783 99.1961H363.931L354.033 150.122H368.545ZM310.155 212.853C309.326 212.853 308.539 212.483 308.012 211.842C307.484 211.202 307.27 210.36 307.428 209.546L333.658 74.5915C333.912 73.2869 335.055 72.3443 336.385 72.3443H392.916C410.683 72.3443 423.906 77.1683 432.219 86.6841C440.576 96.2489 443.155 109.62 439.889 126.426C438.557 133.272 436.271 139.63 433.091 145.323C429.906 151.022 425.698 156.295 420.581 160.999C414.455 166.732 407.521 170.889 399.992 173.336C392.581 175.75 383.065 176.974 371.707 176.974H348.815L342.281 210.605C342.026 211.911 340.883 212.853 339.553 212.853H310.155Z" fill="black"/>
<path d="M366.221 101.973H381.784C394.21 101.973 398.527 104.7 399.994 106.325C402.428 109.023 402.887 114.712 401.322 122.775C399.565 131.804 396.307 138.205 391.639 141.799C386.86 145.479 379.089 147.344 368.546 147.344H357.404L366.221 101.973ZM392.916 69.5661H336.385C333.725 69.5661 331.439 71.4512 330.932 74.0614L304.702 209.016C304.386 210.645 304.813 212.329 305.868 213.609C306.924 214.89 308.496 215.631 310.155 215.631H339.553C342.212 215.631 344.499 213.745 345.007 211.135L351.106 179.751H371.707C383.357 179.751 393.164 178.481 400.854 175.976C408.762 173.407 416.04 169.049 422.48 163.026C427.806 158.127 432.191 152.628 435.515 146.679C438.84 140.728 441.229 134.092 442.615 126.955C446.055 109.265 443.26 95.1003 434.31 84.8558C425.447 74.7105 411.521 69.5661 392.916 69.5661ZM350.664 152.899H368.546C380.398 152.899 389.227 150.667 395.028 146.201C400.831 141.734 404.743 134.28 406.776 123.834C408.722 113.804 407.836 106.726 404.118 102.603C400.396 98.4799 392.952 96.4179 381.784 96.4179H361.641L350.664 152.899ZM392.916 75.1216C409.922 75.1216 422.329 79.5846 430.127 88.5114C437.925 97.4382 440.272 109.898 437.161 125.896C435.881 132.485 433.715 138.51 430.666 143.969C427.613 149.431 423.627 154.425 418.701 158.954C412.831 164.447 406.31 168.362 399.134 170.694C391.958 173.032 382.818 174.196 371.707 174.196H346.525L339.553 210.075H310.155L336.385 75.1216H392.916" fill="white"/>
</g>
<defs>
<radialGradient id="paint0_radial_163_208" cx="0" cy="0" r="1" gradientUnits="userSpaceOnUse" gradientTransform="translate(153.703 47.3438) scale(336.164 336.164)">
<stop stop-color="#AEB2D5"/>
<stop offset="0.3" stop-color="#AEB2D5"/>
<stop offset="0.75" stop-color="#484C89"/>
<stop offset="1" stop-color="#484C89"/>
</radialGradient>
<clipPath id="clip0_163_208">
<rect width="512" height="269.33" fill="white"/>
</clipPath>
</defs>
</svg>
