<svg width="512" height="373" viewBox="0 0 512 373" fill="none" xmlns="http://www.w3.org/2000/svg">
<g clip-path="url(#clip0_169_537)">
<rect y="0.128906" width="512" height="372" fill="white"/>
<path d="M51.5244 317.219H28.894V296.523H52.7974C61.5425 296.523 65.9248 300.02 65.9248 307.031C65.9248 313.823 61.1392 317.219 51.5681 317.219M67.8632 296.328C64.7539 293.802 60.4104 292.539 54.8233 292.539L22.3497 292.704V342.26H28.894L28.8357 321.184H52.9965C59.055 321.184 63.8308 319.92 67.3045 317.394C70.7783 314.868 72.5273 311.369 72.5273 306.885C72.5273 302.401 70.9726 298.903 67.8632 296.377V296.328ZM110.214 331.775C109.565 333.427 108.494 334.879 107.109 335.988C104.18 338.581 99.71 339.874 93.7002 339.874C88.2685 339.874 84.1 338.611 81.1947 336.084C78.2893 333.558 76.8319 330.187 76.8319 325.954C76.8319 323.754 77.2108 321.796 77.9735 320.09C78.7184 318.409 79.8504 316.927 81.2772 315.767C84.2895 313.279 88.4192 312.036 93.7002 312.036C105.38 312.036 111.22 316.675 111.22 325.95C111.22 328.156 110.88 330.089 110.224 331.76M111.409 313.493C107.425 310.189 101.517 308.537 93.7002 308.537C86.3154 308.537 80.6019 310.223 76.5792 313.59C72.9451 316.641 71.128 320.757 71.128 325.931C71.128 331.105 73.0035 335.225 76.7639 338.383C78.8899 340.113 81.3588 341.373 84.0077 342.08C86.7624 342.843 89.9981 343.222 93.7099 343.222C101.483 343.222 107.411 341.589 111.477 338.324C115.112 335.346 116.928 331.211 116.928 325.925C116.928 320.606 115.092 316.451 111.414 313.473L111.409 313.493ZM160.897 333.203C160.897 339.869 154.318 343.197 141.157 343.197C137.134 343.197 133.748 342.964 130.993 342.502C128.239 342.041 126.004 341.268 124.289 340.2C122.963 339.383 121.859 338.32 121.131 337.007C120.307 335.474 119.79 333.793 119.61 332.062L125.732 332.013C125.732 334.637 126.801 336.565 128.948 337.809C131.246 339.301 135.322 340.044 141.166 340.044C150.364 340.044 154.964 337.954 154.964 333.728C154.964 331.284 153.425 329.599 150.34 328.675C149.708 328.495 145.996 328.029 139.179 327.218L126.441 325.178C122.812 323.865 120.999 321.509 120.999 318.103C120.999 314.77 122.622 312.288 125.868 310.66C127.471 309.98 129.473 309.466 131.878 309.091C134.283 308.717 137.067 308.533 140.234 308.533C152.9 308.533 159.182 312.137 159.182 319.352H153.352C153.352 314.285 148.901 311.748 139.991 311.748C135.463 311.748 132.081 312.264 129.856 313.289C127.631 314.314 126.518 315.893 126.518 318.021C126.518 319.964 127.976 321.441 131.027 322.325C132.786 322.787 136.828 323.321 143.154 323.919C148.818 324.381 152.701 325.036 154.814 325.887C158.837 327.305 160.848 329.715 160.848 333.116L160.897 333.203ZM184.937 342.23L182.444 342.546L180.889 342.653C176.905 342.653 174.029 342.128 172.266 341.079C170.502 340.029 169.622 338.193 169.622 335.564V312.973H162.359V309.65H169.564L169.622 298.976H175.21V309.65H184.926V313.026L175.21 312.978V334.957C175.21 336.595 175.685 337.726 176.647 338.349C177.609 338.97 179.32 339.282 181.773 339.282C182.123 339.315 182.517 339.305 182.94 339.247C183.362 339.189 184.008 339.052 184.873 338.849L184.931 342.24L184.937 342.23ZM223.545 334.739C221.97 335.898 220.207 336.779 218.333 337.343C216.38 337.945 214.135 338.247 211.599 338.247C199.924 338.247 194.089 333.874 194.089 325.128C194.089 321.058 195.581 317.865 198.569 315.567C201.557 313.27 205.76 312.166 211.186 312.166C216.652 312.166 220.805 313.333 223.624 315.645C226.441 317.957 227.87 321.072 227.87 324.973C227.87 329.225 226.427 332.504 223.536 334.802M233.447 309.732H227.884L227.826 315.32C225.368 313.051 223.609 311.618 222.555 311.015C219.431 309.46 215.389 308.683 210.428 308.683C203.16 308.683 197.617 310.141 193.788 313.201C190.154 315.97 188.337 319.969 188.337 325.211C188.337 327.796 188.798 330.109 189.717 332.144C190.624 334.166 192.002 335.942 193.735 337.323C197.621 340.229 202.985 341.681 209.991 341.681C218.396 341.681 224.371 339.592 227.889 335.365V341.195C227.889 344.888 226.607 347.735 224.003 349.756C221.399 351.777 217.235 352.788 211.371 352.788C205.861 352.788 201.935 352.098 199.594 350.723C197.835 349.663 196.679 347.827 195.96 345.219H190.217C190.849 348.862 192.549 351.505 195.318 353.137C198.525 355.013 203.932 355.956 211.555 355.956C226.13 355.956 233.418 351.039 233.418 341.205V309.625L233.447 309.732ZM263.652 313.012C262.102 312.775 260.536 312.652 258.968 312.643C249.795 312.643 245.209 317.21 245.209 326.343V342.22H239.69L239.632 309.732L245.219 309.781V315.577H245.51C246.363 313.392 247.932 311.56 249.961 310.384C252.186 309.242 255.5 308.669 259.921 308.669H263.662V313.017L263.652 313.012ZM268.841 323.865C269.545 320.173 271.124 317.317 273.582 315.29C275.186 314.124 276.998 313.24 279.024 312.653C281.05 312.064 283.338 311.777 285.826 311.777C290.781 311.777 294.833 313.012 297.972 315.48C301.11 317.948 302.684 320.742 302.684 323.871H268.773M303.228 313.847C301.275 312.069 298.856 310.752 295.961 309.903C293.065 309.052 289.645 308.619 285.82 308.619C278.534 308.619 272.98 310.146 268.991 313.197C265.003 316.248 263.016 320.397 263.016 325.649C263.016 330.9 264.93 335.064 268.759 338.149C272.898 341.55 278.743 343.251 286.282 343.251C289.294 343.251 292.073 342.94 294.639 342.279C297.204 341.618 299.434 340.787 301.344 339.656C304.705 337.469 306.833 334.763 307.732 331.552H301.698C299.629 337.105 294.474 339.884 286.234 339.884C280.414 339.884 275.934 338.523 272.825 335.802C270.128 333.47 268.782 330.458 268.782 326.751H308.621C308.621 321.242 306.844 316.918 303.287 313.789L303.228 313.847Z" fill="#231F20"/>
<path d="M367.603 328.894C367.603 338.538 359.032 343.362 341.882 343.362C331.607 343.362 324.11 341.701 319.388 338.378C315.52 335.647 313.586 331.479 313.586 325.882H320.485C320.485 334.884 327.613 339.388 341.877 339.388C348.712 339.388 353.658 338.416 356.709 336.619C359.284 334.991 360.577 332.441 360.577 328.967C360.577 325.532 358.818 323.122 355.3 321.742C353.357 320.999 348.44 320.061 340.706 318.925C330.975 317.579 324.673 316.233 321.773 314.893C317.595 312.91 315.457 309.548 315.457 304.796C315.457 300.424 317.235 297.023 320.791 294.914C324.62 292.543 331.189 291.353 340.487 291.353C357.297 291.353 365.693 296.416 365.693 306.545H358.731C358.731 298.957 352.493 295.167 340.016 295.167C333.759 295.167 329.182 295.929 326.287 297.451C323.547 299.083 322.181 301.473 322.181 304.631C322.181 307.935 323.94 310.252 327.458 311.599C329.332 312.375 334.842 313.459 343.986 314.843C352.585 316.01 358.386 317.38 361.398 318.939C365.503 320.853 367.553 324.172 367.553 328.89L367.603 328.894ZM423.669 333.815C421.024 335.722 418.065 337.151 414.928 338.038C411.682 338.975 408.043 339.495 404.016 339.495C395.756 339.495 389.164 337.489 384.097 333.47C379.029 329.453 376.552 324.045 376.552 317.355C376.552 310.384 379.063 304.951 384.082 301.055C389.101 297.159 395.766 295.216 404.059 295.216C412.464 295.216 419.082 297.256 423.891 301.323C426.295 303.163 428.227 305.546 429.527 308.28C430.79 310.938 431.344 313.964 431.344 317.365C431.344 324.303 428.803 329.788 423.717 333.821M427.385 337.105C430.98 334.802 433.642 332.013 435.362 328.739C437.082 325.464 437.947 321.679 437.947 317.394C437.947 309.708 435.129 303.548 429.503 298.903C426.491 296.353 422.857 294.458 418.601 293.219C414.344 291.98 409.467 291.358 404.006 291.358C393.376 291.358 385.034 293.69 378.976 298.374C372.917 303.057 369.891 309.388 369.891 317.394C369.797 321.042 370.581 324.659 372.176 327.941C373.771 331.223 376.132 334.075 379.059 336.254C385.166 341.035 393.527 343.425 404.113 343.425C407.739 343.464 411.363 343.209 414.948 342.663C418.027 342.153 420.651 341.375 422.803 340.321L433.006 346.734L437.262 343.188L427.39 337.115L427.385 337.105ZM489.592 342.157H442.432V292.602L448.913 292.495V338.018H489.65L489.592 342.157Z" fill="#367FAF"/>
<path d="M326.086 217.77C327.942 202.295 327.388 200.027 338.913 202.533L341.837 202.791C350.699 203.194 362.242 201.368 369.102 198.2C383.765 191.398 392.457 180.039 378.003 183.022C345.029 189.824 342.76 178.659 342.76 178.659C377.58 126.995 392.136 61.4066 379.573 45.3447C345.301 1.55593 285.985 22.2673 284.989 22.8017L284.673 22.86C278.153 21.5094 270.866 20.7029 262.674 20.5669C247.759 20.3239 236.429 24.4779 227.84 30.993C227.84 30.993 122.023 -12.6063 126.94 85.8249C127.99 106.716 156.956 244.267 191.499 202.733C204.13 187.545 216.325 174.7 216.325 174.7C222.383 178.732 229.638 180.773 237.246 180.044L237.828 179.543C237.644 181.429 237.731 183.274 238.062 185.456C229.161 195.401 231.78 197.146 213.984 200.809C195.983 204.52 206.56 211.123 213.464 212.848C221.835 214.937 241.205 217.9 254.284 199.584L253.764 201.673C257.262 204.467 257.019 221.748 257.515 234.093C258.011 246.438 258.837 257.963 261.401 264.76C263.967 271.557 266.891 289.052 290.275 284.038C309.821 279.85 324.76 273.821 326.13 217.75" fill="#231F20"/>
<path d="M326.086 217.77C327.942 202.295 327.388 200.027 338.913 202.533L341.837 202.791C350.699 203.194 362.242 201.368 369.102 198.2C383.765 191.398 392.457 180.039 378.003 183.022C345.029 189.824 342.76 178.659 342.76 178.659C377.58 126.995 392.136 61.4066 379.573 45.3447C345.301 1.55593 285.985 22.2673 284.989 22.8017L284.673 22.86C278.153 21.5094 270.866 20.7029 262.674 20.5669C247.759 20.3239 236.429 24.4779 227.84 30.993C227.84 30.993 122.023 -12.6063 126.94 85.8249C127.99 106.716 156.956 244.267 191.499 202.733C204.13 187.545 216.325 174.7 216.325 174.7C222.383 178.732 229.638 180.773 237.246 180.044L237.828 179.543C237.644 181.429 237.731 183.274 238.062 185.456C229.161 195.401 231.78 197.146 213.984 200.809C195.983 204.52 206.56 211.123 213.464 212.848C221.835 214.937 241.205 217.9 254.284 199.584L253.764 201.673C257.262 204.467 257.019 221.748 257.515 234.093C258.011 246.438 258.837 257.963 261.401 264.76C263.967 271.557 266.891 289.052 290.275 284.038C309.821 279.85 324.76 273.821 326.13 217.75" stroke="#231F20" stroke-width="5.046"/>
<path d="M378.008 183.022C345.029 189.824 342.76 178.66 342.76 178.66C377.58 126.99 392.136 61.4019 379.577 45.3448C345.306 1.56099 285.985 22.2675 284.994 22.8019L284.673 22.8602C278.154 21.5095 270.866 20.703 262.664 20.567C247.749 20.3241 236.429 24.478 227.83 30.9932C227.83 30.9932 122.004 -12.6013 126.921 85.825C127.966 106.716 156.931 244.267 191.48 202.738C204.111 187.55 216.257 174.705 216.257 174.705C222.316 178.737 229.569 180.777 237.177 180.049L237.771 179.549C237.585 181.433 237.673 183.28 238.013 185.461C229.113 195.406 231.727 197.15 213.935 200.814C195.93 204.526 206.502 211.128 213.41 212.853C221.781 214.942 241.152 217.906 254.23 199.59L253.711 201.679C257.199 204.472 259.648 219.849 259.234 233.783C258.822 247.717 258.555 257.288 261.3 264.764C264.044 272.242 266.79 289.057 290.178 284.043C309.723 279.855 319.848 269.001 321.257 250.899C322.258 238.024 324.512 239.929 324.658 228.424L326.475 222.982C328.564 205.541 326.805 199.906 338.849 202.529L341.774 202.786C350.636 203.189 362.228 201.363 369.045 198.195C383.703 191.393 392.399 180.034 377.945 183.017L378.008 183.022Z" fill="#417BA2"/>
<path d="M255.708 193.026C254.799 225.489 255.936 258.128 259.109 266.125C262.281 274.122 269.087 289.523 292.486 284.514C312.026 280.326 319.138 272.222 322.219 254.324C324.492 241.206 328.875 204.593 329.434 197.102M227.723 30.2741C227.723 30.2741 121.824 -12.9657 126.751 85.417C127.801 106.308 156.766 243.864 191.367 202.33C204 187.142 215.417 175.229 215.417 175.229M284.878 22.3743C281.21 23.5258 343.786 -0.499061 379.344 44.9368C391.903 60.9889 377.4 126.578 342.527 178.251" stroke="white" stroke-width="1.682" stroke-linecap="round" stroke-linejoin="round"/>
<path d="M342.527 178.246C342.527 178.246 344.796 189.421 377.775 182.609C392.224 179.626 383.527 190.985 368.874 197.792C356.845 203.379 329.881 204.802 329.438 197.092C328.302 177.192 343.625 183.236 342.527 178.251C341.526 173.762 334.671 169.35 330.138 158.361C326.179 148.765 275.856 75.1851 344.096 86.1166C346.599 85.6015 326.3 21.2083 262.436 20.1638C198.573 19.1192 200.734 98.6852 200.734 98.6852" stroke="white" stroke-width="1.682" stroke-linecap="round" stroke-linejoin="bevel"/>
<path d="M237.843 185.058C228.942 195.003 231.562 196.747 213.765 200.41C195.765 204.122 206.341 210.725 213.24 212.45C221.611 214.539 240.982 217.512 254.06 199.186C258.044 193.609 254.036 184.708 248.571 182.435C245.927 181.341 242.391 179.966 237.843 185.058Z" stroke="white" stroke-width="1.682" stroke-linejoin="round"/>
<path d="M237.255 184.883C236.361 179.039 239.179 172.081 242.196 163.944C246.734 151.734 257.208 139.515 248.828 100.784C242.585 71.9154 200.711 94.7742 200.681 98.6949C200.652 102.616 202.625 118.537 199.981 137.077C196.595 161.271 215.383 181.745 237.012 179.65" stroke="white" stroke-width="1.682" stroke-linecap="round" stroke-linejoin="round"/>
<path d="M227.296 98.0974C227.101 99.4335 229.744 103.004 233.174 103.48C236.604 103.957 239.539 101.173 239.733 99.8367C239.927 98.5006 237.284 97.0285 233.854 96.5476C230.424 96.0666 227.48 96.7662 227.296 98.1022V98.0974Z" fill="white" stroke="white" stroke-width="0.561"/>
<path d="M331.814 95.3718C331.999 96.7078 329.366 100.23 325.935 100.755C322.505 101.28 319.571 98.4472 319.377 97.1111C319.182 95.7751 321.83 94.303 325.265 93.822C328.7 93.341 331.63 94.0406 331.824 95.3767L331.814 95.3718Z" fill="white" stroke="white" stroke-width="0.28"/>
<path d="M344.096 86.1165C344.66 96.6009 341.837 103.752 341.482 114.913C340.948 131.139 349.217 149.708 336.77 168.306" stroke="white" stroke-width="1.682" stroke-linecap="round" stroke-linejoin="round"/>
</g>
<defs>
<clipPath id="clip0_169_537">
<rect width="512" height="373" fill="white"/>
</clipPath>
</defs>
</svg>
