<svg width="512" height="512" viewBox="0 0 512 512" fill="none" xmlns="http://www.w3.org/2000/svg">
<g clip-path="url(#clip0_168_422)">
<rect x="116" y="96" width="280" height="320" fill="white"/>
<path d="M485.479 306.125C488.794 290.122 490.852 273.09 490.852 256.057C490.852 126.314 385.8 21.3762 256.171 21.3762C239.139 21.3762 222.221 23.3195 206.103 26.7488C184.384 9.94508 157.406 0 128.028 0C57.3838 0 -0.000488281 57.3842 -0.000488281 128.029C-0.000488281 157.407 9.94459 184.384 26.634 205.989C23.319 221.992 21.2614 239.025 21.2614 256.057C21.2614 385.8 126.313 490.738 255.942 490.738C272.975 490.738 289.893 488.795 306.011 485.365C327.73 502.055 354.707 512 383.971 512C454.615 512 512 454.616 512 383.971C512.114 354.708 502.169 327.73 485.479 306.125ZM263.03 410.72C188.041 410.72 125.285 377.341 125.285 336.418C125.285 318.128 135.573 301.439 159.006 301.439C194.672 301.439 197.987 352.764 259.715 352.764C289.093 352.764 308.068 339.733 308.068 322.701C308.068 301.324 289.778 298.009 260.058 290.693C188.613 273.09 125.399 265.545 125.399 191.014C125.399 123.342 192.385 98.3077 250.112 98.3077C313.098 98.3077 376.769 123.342 376.769 161.636C376.769 180.955 363.738 197.987 342.133 197.987C309.783 197.987 308.754 159.693 256.4 159.693C227.022 159.693 208.389 167.695 208.389 185.413C208.389 208.046 232.166 210.333 287.378 223.136C334.703 233.766 391.058 253.771 391.058 311.841C391.058 379.399 325.787 410.72 263.03 410.72Z" fill="#00A9F0"/>
</g>
<defs>
<clipPath id="clip0_168_422">
<rect width="512" height="512" fill="white"/>
</clipPath>
</defs>
</svg>
