<svg width="512" height="395" viewBox="0 0 512 395" fill="none" xmlns="http://www.w3.org/2000/svg">
<g clip-path="url(#clip0_169_526)">
<rect y="0.0136719" width="512" height="394" fill="white"/>
<path d="M287.022 137.837L235.219 154.805L190.1 174.729L177.503 178.071C174.29 181.156 170.948 184.241 167.22 187.326C163.235 190.797 159.507 193.882 156.68 196.196C153.466 198.767 148.839 203.394 146.396 206.351C142.796 210.85 139.969 215.606 138.812 219.204C136.627 225.761 137.655 232.445 141.897 238.614C147.167 246.456 157.837 254.426 170.177 259.824C176.475 262.652 187.144 266.123 195.114 268.18C208.354 271.522 234.062 275.25 248.202 275.764C251.03 275.893 254.886 275.893 255.015 275.764C255.272 275.506 257.585 271.393 260.028 266.123C268.769 248.384 274.939 231.674 278.41 217.534C280.467 208.922 282.009 197.481 283.166 183.856C283.423 179.999 283.551 167.273 283.294 163.032C282.909 155.962 282.266 150.306 281.366 144.649C281.238 143.878 281.109 143.107 281.238 143.107C281.366 142.979 281.88 142.851 288.308 141.051L287.022 137.837ZM275.196 144.779C275.71 144.779 276.867 156.861 277.253 164.446C277.381 165.988 277.253 167.145 277.253 167.145C276.995 167.145 270.697 163.417 266.07 160.589C262.214 158.147 254.758 153.134 253.601 152.234C253.215 151.977 253.215 151.977 256.429 150.82C261.828 148.892 274.682 144.779 275.196 144.779ZM248.716 153.519C249.101 153.519 250.002 154.034 252.187 155.319C260.285 160.333 271.211 166.502 275.967 168.559C277.381 169.201 277.51 168.945 274.296 171.258C267.226 176.143 258.228 180.899 247.431 185.655C245.503 186.555 243.96 187.198 243.831 187.198C243.703 187.198 243.96 186.169 244.346 185.013C246.917 175.244 248.459 165.345 248.588 157.504C248.33 153.519 248.33 153.519 248.716 153.519ZM243.317 155.576C243.575 155.833 243.446 164.574 243.06 167.016C242.417 172.673 241.26 178.071 239.461 184.112C239.076 185.526 238.689 186.812 238.561 186.812C238.433 187.069 233.034 181.799 231.235 179.742C228.149 176.271 225.836 172.673 224.036 169.201C223.136 167.402 221.722 163.931 221.85 163.931C222.493 163.417 243.189 155.447 243.317 155.576ZM217.737 165.603C217.994 165.731 218.252 166.374 218.38 167.016C219.665 170.487 222.493 175.5 224.936 178.586C227.635 182.056 231.106 185.912 233.934 188.355C234.833 189.126 235.734 189.897 235.862 190.025C236.119 190.283 236.119 190.283 229.821 192.596C222.365 195.425 214.395 198.252 205.141 201.209C202.955 201.98 200.77 202.623 198.584 203.394C198.199 203.522 198.327 203.266 199.356 201.723C203.983 194.524 210.925 180.514 214.78 170.487C215.423 168.816 216.066 167.016 216.195 166.63C216.324 166.117 216.58 165.859 217.095 165.603C217.351 165.731 217.609 165.603 217.737 165.603ZM209.896 168.816C210.025 168.945 207.968 173.058 206.04 176.914C202.184 184.37 198.071 191.568 192.543 200.437C191.643 201.98 190.743 203.394 190.615 203.522C190.358 203.78 190.358 203.78 189.715 202.495C188.43 199.924 187.273 196.452 186.758 193.368C186.115 190.283 186.244 185.013 187.016 181.67C187.529 179.228 187.529 179.228 188.686 178.714C193.443 176.271 209.639 168.687 209.896 168.816ZM277.381 171.644V173.315C277.381 182.056 276.482 194.011 275.067 202.751C274.81 204.293 274.682 205.579 274.554 205.579C274.554 205.579 273.397 205.322 272.111 204.936C266.198 203.137 259.899 200.437 254.115 197.224C250.259 195.167 244.732 191.697 244.988 191.568C244.988 191.568 246.66 190.668 248.588 189.64C256.3 185.655 263.627 181.285 270.055 177.042C272.496 175.5 276.096 172.801 276.867 172.158L277.381 171.644ZM180.331 183.213C180.46 183.213 180.46 183.47 180.203 184.884C180.074 185.912 179.818 187.84 179.818 189.126C179.56 194.782 180.46 199.023 183.288 204.808C184.059 206.351 184.702 207.765 184.702 207.765C184.445 208.021 158.479 215.606 150.381 217.791C147.938 218.433 145.882 219.076 145.625 219.076C145.367 219.204 145.367 219.076 145.367 218.433C146.268 212.649 150.638 205.194 156.808 198.767C160.921 194.524 164.135 192.083 169.662 188.869C173.647 186.812 179.688 183.341 180.331 183.213C180.203 183.213 180.203 183.213 180.331 183.213ZM241.389 194.139C241.389 194.139 242.418 194.653 243.446 195.296C251.802 200.18 263.499 204.679 273.397 206.994L274.296 207.25L273.011 207.893C267.74 210.85 250.645 217.919 233.163 224.475C230.592 225.375 228.149 226.403 227.635 226.532C227.121 226.789 226.735 226.789 226.735 226.789C226.735 226.789 227.378 225.375 228.278 223.704C233.163 214.577 238.047 203.394 240.618 195.681C241.132 194.782 241.389 194.139 241.389 194.139ZM235.219 196.196C235.219 196.196 234.963 197.095 234.576 197.996C231.106 206.222 226.735 215.22 220.951 225.375C219.537 227.946 218.252 230.002 218.252 230.002C218.252 230.002 217.095 229.36 215.681 228.46C207.325 223.318 199.999 217.148 195.242 210.978L194.599 210.078L198.199 209.05C210.925 205.579 221.85 201.852 232.648 197.224C233.805 196.71 235.091 196.196 235.219 196.196ZM273.911 209.693C273.911 210.592 271.983 218.691 270.311 224.475C268.898 229.36 267.74 233.216 265.556 240.029C264.655 242.985 263.756 245.428 263.756 245.428C263.756 245.428 263.499 245.428 263.241 245.299C251.672 243.242 241.132 240.286 231.363 236.301C228.664 235.144 224.679 233.473 224.421 233.216C224.293 233.088 226.735 232.059 229.691 230.773C247.559 222.932 265.941 214.192 272.368 210.336C273.139 209.95 273.782 209.693 273.911 209.693ZM184.573 212.777C184.702 212.907 179.688 219.977 172.748 229.746C170.305 233.216 167.477 237.201 166.449 238.614C165.42 240.158 163.749 242.471 162.849 243.885L161.179 246.456L159.379 244.913C157.322 243.242 153.723 239.515 152.052 237.458C148.71 233.216 146.396 228.845 145.497 224.861C145.11 222.932 145.11 222.033 145.497 221.905C146.139 221.775 156.551 219.334 166.32 217.02C171.719 215.734 178.018 214.32 180.331 213.678C182.645 213.163 184.445 212.777 184.573 212.777ZM189.587 214.705L190.872 216.12C196.527 222.418 202.312 227.046 209.254 231.16C210.539 231.802 211.438 232.445 211.31 232.573C211.053 232.83 187.144 241.314 175.961 245.042C169.791 247.228 164.649 249.026 164.521 249.026L163.75 248.513L163.107 247.999L164.264 246.327C167.991 241.057 172.618 235.144 182.645 223.061L189.587 214.705ZM220.823 237.072C220.823 237.072 222.622 237.715 224.679 238.486C229.821 240.414 233.805 241.571 239.204 242.985C245.888 244.657 255.529 246.327 261.185 246.842C262.084 246.97 262.47 246.97 262.342 247.098C262.084 247.228 256.3 249.156 252.058 250.57C245.374 252.626 224.807 258.796 207.968 263.552C204.883 264.452 202.184 265.223 202.055 265.223C201.669 265.352 200.384 264.966 200.384 264.838C200.384 264.71 201.284 263.552 202.44 262.267C208.096 255.583 213.624 247.999 218.38 240.929C219.665 238.615 220.823 237.072 220.823 237.072ZM213.881 237.201C213.881 237.201 211.182 241.7 206.297 249.412C204.24 252.626 201.927 256.354 201.026 257.64C200.255 258.925 199.098 260.853 198.456 262.009L197.299 264.067L196.656 263.937C195.242 263.552 185.344 260.081 182.774 259.053C179.56 257.768 176.218 256.225 173.647 254.811C170.562 253.14 166.577 250.57 166.963 250.57C167.091 250.57 172.362 249.026 178.917 247.356C196.014 242.729 205.526 240.029 211.824 237.972C212.853 237.458 213.881 237.201 213.881 237.201ZM262.599 248.641C262.856 249.026 256.429 266.638 254.115 272.164C253.601 273.45 253.472 273.707 253.087 273.707C252.444 273.707 243.189 272.421 237.662 271.522C227.893 269.98 211.567 267.151 207.454 266.252L206.554 265.995L212.339 264.71C224.936 261.881 230.848 260.339 237.019 258.539C244.732 256.225 252.315 253.269 260.028 249.669C261.313 249.156 262.342 248.641 262.599 248.641Z" fill="url(#paint0_linear_169_526)"/>
<path d="M233.548 17.1351C232.648 17.0066 218.766 22.0197 209.768 25.6189C197.684 30.5036 188.301 35.2597 182.517 39.3731C180.331 40.9156 177.632 43.615 177.247 44.6433C177.117 45.0289 176.989 45.5431 176.989 45.9287L182.259 50.9419L194.728 54.9268L224.421 60.197L258.357 65.9814L258.742 63.025H258.486L253.986 62.3823L253.086 60.8397C248.459 52.7415 243.317 42.5867 240.361 35.7739C238.047 30.5036 235.862 24.3335 234.705 19.9631C234.062 17.2637 233.934 17.1351 233.548 17.1351ZM232.905 19.0633C233.034 19.0633 233.163 20.2202 233.291 21.5056C233.934 27.033 235.219 32.3032 237.147 37.959C238.561 42.3296 238.561 42.0725 236.89 41.5583C232.905 40.4014 215.038 37.3163 202.055 35.5168C199.999 35.2597 198.199 35.0026 198.199 34.8741C198.07 34.7455 207.582 29.7323 211.696 27.8042C217.094 25.3619 231.877 19.3203 232.905 19.0633ZM195.114 36.6736L196.656 37.1878C205.011 40.0158 225.835 44.0006 237.404 44.9004C238.689 45.0289 239.847 45.1575 239.847 45.1575C239.847 45.1575 238.818 45.8002 237.404 46.4429C231.877 49.2709 225.707 52.613 221.465 55.3124C220.18 56.0837 219.023 56.7264 218.894 56.7264C218.766 56.7264 217.866 56.5979 217.095 56.4693L215.552 56.2122L211.696 52.3559C204.754 45.6716 199.356 40.5299 197.298 38.4732L195.114 36.6736ZM193.571 37.8305L199.098 44.7718C202.055 48.6282 205.14 52.2273 205.783 53.1271C206.426 53.8984 206.939 54.6697 206.939 54.6697C206.811 54.7982 198.97 53.2557 194.857 52.3559C190.614 51.3275 188.815 50.9419 186.244 50.0422L184.059 49.3994V48.8853C184.059 46.3144 187.401 42.3296 193.057 38.3447L193.571 37.8305ZM240.489 47.2142C240.618 47.2142 240.875 47.5998 241.26 48.6282C242.546 51.5846 246.788 59.4257 247.816 60.9683C248.074 61.4825 248.716 61.4825 243.188 60.5826C229.949 58.3974 225.707 57.7548 225.707 57.6262C225.707 57.6262 226.093 57.3691 226.607 56.9835C230.72 54.6697 234.833 51.8417 238.561 48.7567C239.461 47.9854 240.233 47.3427 240.489 47.2142C240.489 47.2142 240.361 47.2142 240.489 47.2142Z" fill="url(#paint1_linear_169_526)"/>
<path d="M177.503 44.0006C177.503 44.0006 176.604 45.4146 177.503 47.4713C178.018 48.7567 179.56 50.2992 181.231 51.8417C181.231 51.8417 198.713 68.8094 200.77 71.2517C210.411 82.435 214.652 93.3611 215.038 108.401C215.295 118.17 213.495 126.654 208.868 136.552C200.77 154.29 183.545 173.958 157.065 195.681L160.921 194.396C163.363 192.468 166.835 190.54 174.804 186.169C193.314 176.015 214.009 166.759 239.462 157.247C276.096 143.493 336.383 127.297 370.704 122.026L374.303 121.512L373.789 120.612C370.704 115.728 368.519 112.771 365.948 109.557C358.492 100.174 349.365 92.7183 338.182 86.4197C322.885 77.8073 302.961 71.1231 277.767 66.11C273.011 65.2102 262.599 63.4105 254.115 62.1252C236.119 59.2972 224.551 57.369 211.824 55.1839C207.197 54.4126 200.384 53.2557 195.885 52.2273C193.572 51.7132 189.072 50.6848 185.473 49.3993C182.388 48.4996 178.403 47.3427 177.503 44.0006ZM187.659 53.8984C187.659 53.8984 188.301 54.1555 189.201 54.4126C190.743 54.9268 192.671 55.5695 194.857 56.0836C196.527 56.5978 198.327 56.9834 199.999 57.4976C202.312 58.1403 204.368 58.6545 204.368 58.6545C204.626 58.9116 208.611 71.6373 209.896 76.3935C210.411 78.193 210.796 79.8641 210.796 79.8641C210.796 79.8641 210.282 79.2213 209.768 78.3215C205.141 70.2234 197.942 62.1252 189.587 55.441C188.43 54.5411 187.659 53.8984 187.659 53.8984ZM206.939 59.1686C207.197 59.1686 207.968 59.2972 208.997 59.5543C215.681 61.0968 227.635 63.282 235.219 64.5674C236.505 64.8245 237.533 64.9531 237.533 65.0816C237.533 65.2102 237.019 65.4673 236.505 65.7243C235.219 66.3671 229.949 69.4521 228.278 70.609C223.908 73.5655 220.052 76.6505 217.223 79.4784L215.166 81.5352C215.166 81.5352 214.91 80.8924 214.781 79.9926C213.367 74.5938 210.411 66.4956 207.711 60.8397C207.197 60.0685 206.811 59.1686 206.939 59.1686C206.811 59.1686 206.811 59.1686 206.939 59.1686ZM240.747 65.5958C241.004 65.7243 241.389 67.0098 242.161 69.9663C243.575 75.6222 244.217 82.0493 244.089 87.9623C243.96 89.6334 243.96 91.1759 243.831 91.3044L243.703 91.6901L241.646 91.0474C237.404 89.7619 230.592 87.7052 224.807 86.0341C221.465 85.1343 218.766 84.3631 218.766 84.2346C218.766 83.9775 223.65 79.0928 225.707 77.2932C229.692 73.8226 240.489 65.4672 240.747 65.5958ZM243.446 65.9814C243.575 65.8529 259.643 68.6809 266.969 70.0949C272.368 71.1231 280.338 72.7942 280.852 73.0513C281.109 73.1798 280.209 73.5655 277.638 74.7224C267.355 79.3499 259.643 83.5919 251.93 88.605C249.874 89.8905 248.202 91.0474 248.202 91.0474C248.202 91.0474 248.074 89.8905 248.074 88.605C248.074 81.1495 246.531 73.694 243.831 67.2669C243.703 66.6242 243.446 66.11 243.446 65.9814ZM285.094 74.2082C285.222 74.3367 284.708 77.5503 284.194 79.3499C282.78 85.1343 278.923 93.8752 274.296 101.974C273.525 103.387 272.754 104.544 272.626 104.673C272.497 104.673 271.468 104.159 270.311 103.387C265.812 100.688 260.542 98.2458 255.015 95.932C253.472 95.2892 252.058 94.7751 252.058 94.6465C251.802 94.3894 264.398 86.0341 271.082 82.0493C276.353 78.8357 284.966 74.0796 285.094 74.2082ZM288.05 74.7224C288.436 74.7224 295.506 76.6505 299.234 77.8074C308.489 80.5068 319.029 84.3631 325.842 87.5767L328.67 88.8621L326.613 89.3763C309.774 93.2325 295.378 97.7316 281.494 103.387C280.338 103.902 279.309 104.287 279.309 104.287C279.181 104.287 279.566 103.387 280.081 102.231C284.323 93.3611 287.022 84.106 287.665 76.1364C287.922 75.3651 288.05 74.7224 288.05 74.7224ZM217.095 91.0474C217.223 90.9188 222.622 92.2042 225.578 93.104C230.077 94.3894 239.462 97.4745 239.462 97.7316C239.462 97.7316 238.433 98.6314 237.147 99.7882C232.006 104.03 227.121 108.529 221.208 114.314C219.409 115.985 217.994 117.398 217.866 117.398C217.737 117.398 217.737 117.142 217.737 116.885C218.637 110.328 218.38 101.845 217.223 93.2325C217.223 91.9472 217.095 91.0474 217.095 91.0474ZM331.498 91.1759C331.627 91.3045 328.927 95.2892 327.384 97.6031C325.071 100.945 321.6 105.444 313.759 115.213C309.646 120.355 305.018 126.268 303.475 128.196C301.933 130.124 300.648 131.796 300.519 131.796C300.519 131.796 300.005 131.153 299.362 130.253C294.992 123.697 289.721 117.913 283.552 112.771C282.395 111.743 281.109 110.714 280.595 110.458C280.209 110.2 279.824 109.815 279.824 109.815C279.824 109.686 286.508 106.858 291.521 104.801C300.391 101.202 312.473 96.8318 321.472 94.1323C326.357 92.4612 331.498 91.0474 331.498 91.1759ZM334.583 91.9472C334.711 91.9472 335.74 92.3328 336.769 93.104C346.28 98.5029 355.664 105.573 362.991 112.771C365.047 114.827 370.189 120.098 370.061 120.227C370.061 120.227 368.261 120.355 366.205 120.484C349.751 121.769 328.67 125.239 308.36 130.124C306.947 130.381 305.789 130.767 305.661 130.767C305.532 130.767 307.075 129.225 309.003 127.425C320.957 115.985 326.357 108.658 332.783 95.8034C333.683 93.6182 334.454 92.0757 334.583 91.9472C334.454 91.9472 334.454 91.9472 334.583 91.9472ZM247.303 100.817C247.816 100.945 252.958 103.387 256.814 105.187C260.285 106.987 265.684 109.815 265.941 109.943C265.941 109.943 264.142 110.971 261.828 112.128C254.501 115.856 248.202 119.327 241.518 123.311C239.59 124.468 238.047 125.369 238.047 125.369C237.918 125.369 237.918 125.239 238.947 123.311C242.418 116.885 245.245 109.172 246.917 101.716C247.045 101.202 247.173 100.817 247.303 100.817ZM242.289 101.845C242.418 101.974 241.132 106.73 240.233 109.429C238.69 114.442 235.862 120.612 233.291 125.369C232.648 126.525 231.749 128.068 231.235 128.967L230.206 130.51L228.021 128.453C225.45 126.011 223.393 124.468 220.694 123.055C219.665 122.54 218.766 122.026 218.766 121.897C218.766 121.641 225.45 115.47 230.592 111.1C234.32 107.886 242.161 101.716 242.289 101.845ZM273.397 114.571L275.325 115.856C279.695 118.684 284.837 122.54 288.822 125.882C291.007 127.682 295.378 131.538 296.277 132.567L296.791 133.081L293.578 133.981C275.581 138.994 261.828 143.364 245.631 149.277C243.831 149.92 242.289 150.434 242.161 150.434C241.903 150.434 241.775 150.692 245.759 146.964C256.043 137.451 265.298 126.911 272.111 116.756L273.397 114.571ZM265.17 116.627C265.298 116.756 259.899 124.212 256.686 128.582C252.829 133.723 246.017 142.208 241.389 147.735C239.462 150.049 237.79 151.977 237.662 151.977C237.533 151.977 237.533 151.463 237.533 150.562C237.533 145.807 236.376 140.793 234.19 136.423C233.291 134.624 233.163 134.238 233.291 133.981C234.062 133.338 245.374 126.783 252.701 122.926C257.457 120.355 265.041 116.499 265.17 116.627ZM215.681 128.711C215.809 128.711 216.709 129.225 217.737 129.738C220.18 131.153 222.493 132.695 224.421 134.238C224.551 134.366 223.522 135.138 222.108 136.166C218.38 138.865 212.724 143.107 209.51 145.678C206.04 148.377 205.912 148.506 206.297 147.863C208.868 143.878 210.153 141.694 211.568 138.865C212.724 136.294 214.009 133.338 214.91 130.639C215.166 129.61 215.552 128.711 215.681 128.711ZM228.92 139.123C229.178 139.123 229.306 139.379 230.463 141.051C232.648 144.393 234.448 148.892 234.833 152.49L234.963 153.263L229.563 155.319C219.922 159.047 211.053 162.774 205.141 165.473C203.469 166.245 200.512 167.659 198.585 168.559C196.657 169.587 195.114 170.23 195.114 170.23C195.114 170.23 196.271 169.33 197.813 168.174C209.51 159.69 219.665 150.306 227.25 141.051C228.021 140.022 228.792 139.123 228.92 139.123ZM222.879 140.536C223.007 140.665 218.508 145.807 215.552 148.892C207.968 156.605 200.512 162.646 191.257 168.559C190.1 169.33 189.072 169.972 188.944 170.102C188.686 170.23 189.072 169.844 193.057 165.473C195.628 162.646 197.556 160.332 199.87 157.504C201.413 155.576 201.669 155.319 203.726 153.776C209.382 149.406 222.622 140.408 222.879 140.536Z" fill="url(#paint2_radial_169_526)"/>
<path d="M105.727 284.16C104.956 284.16 104.313 284.288 103.542 284.288C88.888 285.059 79.1187 291.487 73.3343 304.084C68.4496 315.396 68.9637 330.307 73.3343 341.618C78.476 352.802 86.8313 358.715 100.714 360.9C103.67 361.414 105.599 362.956 111.383 369.641L118.452 377.867H131.179L122.695 369.384C118.067 364.756 114.211 360.643 114.211 360.257C114.211 359.871 116.011 359.1 118.196 358.457C125.394 356.272 131.307 350.745 135.421 342.261C138.763 335.449 139.277 333.392 139.791 324.908C141.076 299.714 127.837 284.031 105.727 284.16ZM116.91 349.974C110.74 352.931 101.742 353.573 95.8293 351.387C89.7877 349.203 83.8747 342.904 81.1754 335.705C78.2189 327.864 78.6045 313.468 82.0751 307.04C87.474 296.757 94.6724 292.001 105.084 292.001C120.51 292.001 129.379 301.513 130.536 319.252C131.435 334.163 126.423 345.346 116.91 349.974ZM336.847 305.627C331.449 305.627 327.464 307.811 324.635 312.054L322.451 315.396V306.654H313.196V359.229H322.451V342.39C322.451 326.965 322.579 325.165 324.765 321.052C327.721 315.267 332.863 312.439 337.748 313.724L341.09 314.625V305.498L336.847 305.627ZM282.603 305.112C280.803 305.112 278.875 305.369 276.947 305.755C264.606 308.969 257.665 320.794 258.051 333.006C258.051 343.161 259.979 348.303 264.991 353.702C275.018 361.929 284.145 362.571 296.485 358.201C298.541 357.301 300.856 356.272 300.856 356.272V348.045L296.485 350.36C286.587 354.73 279.003 354.73 272.962 349.589C269.105 345.732 267.434 340.975 266.663 335.705H303.941V328.635C303.941 314.11 295.2 304.984 282.603 305.112ZM267.562 328.25C267.562 328.25 268.977 319.252 273.99 315.653C276.432 313.982 279.26 313.082 282.088 313.082C284.916 313.082 287.615 313.982 289.929 315.781C294.557 319.381 295.456 328.25 295.456 328.25H267.562ZM44.6692 318.738C34.6428 312.697 30.1438 308.326 30.7864 303.184C32.329 288.916 49.9394 290.844 59.7086 296.242L59.8372 286.602C59.8372 286.602 54.4384 284.288 46.7258 284.16C34.8999 284.031 27.1873 287.887 23.5881 295.857C18.3178 307.555 22.9454 316.424 39.913 326.194C49.4252 331.721 53.6671 336.476 53.6671 341.747C53.6671 352.544 40.6843 356.272 27.1873 349.589C24.3593 348.174 22.0456 347.018 21.917 347.018C21.4028 350.102 21.6599 357.43 21.6599 357.43C21.6599 357.43 25.7733 359.1 31.9433 360.386C47.3685 363.471 61.2512 356.273 62.6651 344.575C63.6935 333.52 59.7086 327.736 44.6692 318.738ZM418.73 305.112C416.93 305.112 415.002 305.369 413.074 305.755C400.734 308.969 393.792 320.794 394.178 333.006C394.178 343.161 396.106 348.303 401.119 353.573C411.145 361.799 420.272 362.571 432.74 358.072C434.797 357.172 437.111 356.144 437.111 356.144V347.917L432.74 350.231C422.715 354.601 415.259 354.601 409.217 349.459C405.361 345.603 403.689 340.975 402.918 335.577H440.067V328.507C440.067 313.982 431.327 304.856 418.73 305.112ZM403.561 328.122C403.561 328.122 404.975 319.124 409.988 315.524C412.431 313.724 415.259 312.953 417.958 312.953C420.658 312.953 423.486 313.853 425.799 315.653C430.427 319.252 431.327 328.122 431.327 328.122H403.561ZM234.142 318.866C224.115 312.825 219.745 308.454 220.258 303.312C221.802 289.044 239.412 290.972 249.181 296.372L249.309 286.731C249.309 286.731 243.911 284.417 236.198 284.288C224.372 284.16 216.66 288.016 213.06 295.986C207.79 307.683 212.547 316.553 229.386 326.322C238.897 331.849 243.011 336.606 243.011 341.747C243.011 352.544 230.028 356.401 216.531 349.589C213.832 348.174 211.39 347.018 211.261 347.018C210.747 350.102 211.004 357.43 211.004 357.43C211.004 357.43 215.117 359.1 221.287 360.386C236.713 363.471 250.595 356.273 252.009 344.575C253.166 333.649 249.181 327.864 234.142 318.866ZM472.974 305.498C467.576 305.498 463.462 307.683 460.763 311.925L458.578 315.267V306.526H449.323V359.1H458.578V342.39C458.578 326.965 458.706 325.165 460.892 321.052C463.848 315.267 468.99 312.439 473.875 313.853L477.217 314.753V305.627L472.974 305.498ZM160.615 318.609V285.059H151.36V359.229H190.566V350.488H160.744L160.615 318.609ZM376.182 329.021L368.469 348.946L361.142 328.893L353.686 306.654H344.175C350.344 324.136 357.028 342.004 363.842 359.229C366.798 359.358 369.754 359.229 372.711 359.229L383.123 333.134L393.664 306.526H384.537C384.409 306.654 380.423 317.196 376.182 329.021ZM488.914 306.526C487.885 305.627 486.728 305.112 485.186 305.112C483.644 305.112 482.359 305.627 481.458 306.654C480.43 307.683 479.916 308.969 479.916 310.382C479.916 311.925 480.43 313.082 481.458 314.11C482.487 315.01 483.772 315.524 485.186 315.524C486.728 315.524 487.885 315.01 488.914 313.982C489.942 312.953 490.456 311.796 490.456 310.254C490.585 308.712 489.942 307.426 488.914 306.526ZM488.528 313.596C487.629 314.496 486.6 314.881 485.186 314.881C483.901 314.881 482.744 314.496 481.844 313.596C480.944 312.697 480.43 311.539 480.43 310.254C480.43 308.969 480.815 307.811 481.716 306.912C482.615 306.012 483.644 305.627 485.058 305.627C486.343 305.627 487.5 306.012 488.4 306.912C489.299 307.811 489.813 308.969 489.813 310.254C489.813 311.539 489.428 312.697 488.528 313.596ZM485.829 310.511C486.343 310.382 486.728 310.126 487.114 309.868C487.371 309.611 487.5 309.097 487.5 308.712C487.5 308.198 487.371 307.811 486.986 307.426C486.6 307.04 485.957 306.912 485.058 306.912H483.13V313.596H484.029V310.768H484.672C485.058 310.768 485.443 311.153 485.829 311.925L486.6 313.596H487.757L486.858 311.796C486.472 311.025 486.085 310.64 485.829 310.511ZM485.186 309.868H484.157V307.683H485.058C485.7 307.683 486.086 307.812 486.343 307.94C486.6 308.069 486.6 308.326 486.6 308.84C486.472 309.611 486.085 309.868 485.186 309.868Z" fill="#231F1F"/>
</g>
<defs>
<linearGradient id="paint0_linear_169_526" x1="176.723" y1="250.176" x2="195.457" y2="239.106" gradientUnits="userSpaceOnUse">
<stop stop-color="#909CA9"/>
<stop offset="1" stop-color="#EDEDEE"/>
</linearGradient>
<linearGradient id="paint1_linear_169_526" x1="177.141" y1="41.6058" x2="192.215" y2="41.6058" gradientUnits="userSpaceOnUse">
<stop stop-color="#939FAB"/>
<stop offset="1" stop-color="#DCDEE1"/>
</linearGradient>
<radialGradient id="paint2_radial_169_526" cx="0" cy="0" r="1" gradientUnits="userSpaceOnUse" gradientTransform="translate(253.135 110.645) rotate(-171.457) scale(19.4343 38.8783)">
<stop stop-color="#EE352C"/>
<stop offset="1" stop-color="#A91D22"/>
</radialGradient>
<clipPath id="clip0_169_526">
<rect width="512" height="395" fill="white"/>
</clipPath>
</defs>
</svg>
