<svg width="512" height="512" viewBox="0 0 512 512" fill="none" xmlns="http://www.w3.org/2000/svg">
<g clip-path="url(#clip0_169_577)">
<rect width="512" height="512" fill="white"/>
<path d="M489.215 109.366C485.417 63.3107 448.69 26.5841 402.636 22.7863C304.883 14.7273 207.131 14.7273 109.368 22.7863C63.3128 26.5841 26.586 63.3117 22.7845 109.366C14.7255 207.118 14.7255 304.872 22.7845 402.634C26.5822 448.689 63.3099 485.415 109.368 489.214C207.12 497.273 304.874 497.273 402.636 489.214C448.691 485.415 485.417 448.688 489.215 402.634C497.275 304.881 497.275 207.118 489.215 109.366ZM132.269 374.284C127.544 379.017 121.331 381.383 115.134 381.383C108.933 381.383 102.729 379.017 98.0001 374.284C88.5317 364.815 88.5317 349.469 98.0001 340.008L182.013 255.995L97.9963 171.986C88.5279 162.521 88.5279 147.179 97.9963 137.709C107.45 128.253 122.8 128.253 132.269 137.709L233.421 238.862C237.968 243.409 240.519 249.569 240.519 255.996C240.519 262.423 237.96 268.587 233.421 273.13L132.269 374.284ZM396.865 361.055H270.639C257.257 361.055 246.406 350.203 246.406 336.822C246.406 323.443 257.258 312.591 270.639 312.591H396.865C410.245 312.591 421.097 323.443 421.097 336.822C421.105 350.204 410.253 361.055 396.865 361.055Z" fill="black"/>
</g>
<defs>
<clipPath id="clip0_169_577">
<rect width="512" height="512" fill="white"/>
</clipPath>
</defs>
</svg>
