<svg width="512" height="512" viewBox="0 0 512 512" fill="none" xmlns="http://www.w3.org/2000/svg">
<path d="M395.968 280.704C372.459 280.704 350.421 270.741 330.389 254.528L335.253 231.573L335.424 230.677C339.84 206.293 353.536 165.397 395.989 165.397C427.819 165.397 453.653 191.253 453.653 223.061C453.632 254.827 427.797 280.704 395.968 280.704V280.704ZM395.968 107.051C341.803 107.051 299.755 142.229 282.688 200.192C256.661 161.067 236.864 114.091 225.365 74.496H166.997V226.219C166.955 256.213 142.656 280.533 112.661 280.576C82.688 280.533 58.4107 256.192 58.368 226.219V74.496H0V226.219C0 288.384 50.56 339.349 112.661 339.349C174.805 339.349 225.365 288.384 225.365 226.219V200.832C236.651 224.448 250.581 248.384 267.477 269.547L231.787 437.504H291.456L317.333 315.691C340.011 330.176 366.08 339.349 395.968 339.349C459.968 339.349 512 287.04 512 223.083C512 159.083 459.968 107.051 395.968 107.051V107.051Z" fill="#14A800"/>
</svg>
