<svg width="512" height="512" viewBox="0 0 512 512" fill="none" xmlns="http://www.w3.org/2000/svg">
<g clip-path="url(#clip0_164_314)">
<mask id="mask0_164_314" style="mask-type:alpha" maskUnits="userSpaceOnUse" x="0" y="0" width="512" height="513">
<path d="M93.8668 433.072L8.53352 369.071C5.87408 367.093 3.71638 364.518 2.2342 361.554C0.75202 358.59 -0.013205 355.318 0.000172421 352.004V160.004C-0.013205 156.69 0.75202 153.419 2.2342 150.454C3.71638 147.49 5.87408 144.915 8.53352 142.938L93.8668 78.9376C91.2076 80.9152 89.0496 83.49 87.5676 86.4544C86.0852 89.4188 85.32 92.69 85.3336 96.004V416.004C85.32 419.32 86.0852 422.588 87.5676 425.552C89.0496 428.52 91.2076 431.092 93.8668 433.072Z" fill="white"/>
<path d="M502.508 88.8536C498.992 86.5452 494.872 85.3212 490.668 85.3336C487.94 85.3108 485.236 85.8272 482.712 86.852C480.184 87.8772 477.888 89.3912 475.948 91.3068L474.452 92.8L383.787 179.734L304.214 256L210.027 346.347L122.88 429.868L121.387 431.36C119.448 433.276 117.149 434.788 114.623 435.816C112.097 436.84 109.393 437.356 106.667 437.332C102.053 437.324 97.564 435.832 93.8668 433.072L8.53351 369.071C12.8707 372.324 18.2843 373.8 23.6735 373.206C29.0625 372.611 34.0232 369.987 37.5472 365.867L132.267 255.894L210.027 165.654L346.24 7.46676C348.219 5.12332 350.685 3.24074 353.468 1.95093C356.25 0.661132 359.28 -0.00469856 362.347 9.21401e-05C366.554 -0.012231 370.671 1.21181 374.187 3.52009L502.508 88.8536Z" fill="white"/>
<path d="M502.508 423.148L374.507 508.48C370.153 511.328 364.918 512.508 359.763 511.8C354.609 511.096 349.882 508.552 346.454 504.64L210.027 346.347L132.267 255.894L37.5472 146.027C33.9929 141.948 29.0279 139.362 23.6475 138.788C18.267 138.214 12.8681 139.699 8.53351 142.938L93.8668 78.9376C97.564 76.1764 102.053 74.6764 106.667 74.6672C109.393 74.6448 112.097 75.1612 114.623 76.186C117.149 77.2112 119.448 78.7248 121.387 80.6408L122.88 82.134L210.027 165.654L304.214 256L383.894 332.374L474.452 419.2L475.948 420.696C477.888 422.608 480.184 424.124 482.712 425.148C485.236 426.172 487.94 426.688 490.668 426.668C494.872 426.68 498.992 425.456 502.508 423.148Z" fill="white"/>
<path d="M512 106.668V405.336C512.004 408.856 511.14 412.324 509.484 415.428C507.828 418.536 505.432 421.188 502.508 423.148L374.507 508.48C377.432 506.52 379.827 503.868 381.483 500.764C383.139 497.656 384.003 494.188 384 490.668L383.894 332.374L383.787 179.734L383.68 21.3342C383.696 17.811 382.838 14.3389 381.18 11.2296C379.524 8.12041 377.121 5.47077 374.187 3.52014L502.508 88.8537C505.424 90.8213 507.816 93.4745 509.468 96.5797C511.124 99.6853 511.992 103.149 512 106.668Z" fill="white"/>
</mask>
<g mask="url(#mask0_164_314)">
<path d="M93.8668 433.072L8.53352 369.07C5.87408 367.092 3.71638 364.518 2.2342 361.553C0.75202 358.589 -0.013205 355.318 0.000172421 352.004V160.004C-0.013205 156.69 0.75202 153.418 2.2342 150.454C3.71638 147.49 5.87408 144.915 8.53352 142.937L93.8668 78.9373C91.2076 80.9149 89.0496 83.4897 87.5676 86.4541C86.0852 89.4185 85.32 92.6897 85.3336 96.0037V416.004C85.32 419.316 86.0852 422.588 87.5676 425.552C89.0496 428.516 91.2076 431.092 93.8668 433.072Z" fill="#5E438F"/>
<g filter="url(#filter0_dd_164_314)">
<path d="M502.508 88.8536C498.992 86.5452 494.872 85.3212 490.668 85.3336C487.94 85.3108 485.236 85.8272 482.712 86.852C480.184 87.8772 477.888 89.3912 475.948 91.3068L474.456 92.8L383.788 179.734L304.214 256L210.028 346.347L122.881 429.868L121.388 431.36C119.448 433.276 117.149 434.788 114.623 435.816C112.097 436.84 109.394 437.356 106.668 437.332C102.053 437.324 97.5644 435.828 93.8676 433.068L8.53418 369.067C12.8715 372.32 18.2847 373.8 23.6738 373.206C29.0629 372.611 34.0235 369.987 37.5475 365.867L85.334 310.4L132.268 255.894L210.028 165.654L346.241 7.46676C348.219 5.12332 350.686 3.24074 353.468 1.95093C356.25 0.661132 359.281 -0.00469856 362.348 9.21401e-05C366.554 -0.012231 370.671 1.21181 374.188 3.52009L502.508 88.8536Z" fill="url(#paint0_linear_164_314)"/>
</g>
<g filter="url(#filter1_dd_164_314)">
<path d="M502.508 423.148L374.508 508.48C370.154 511.328 364.918 512.508 359.763 511.804C354.609 511.096 349.883 508.556 346.454 504.64L210.028 346.348L132.268 255.895L85.334 201.495L37.5475 146.028C33.9932 141.948 29.0283 139.362 23.6478 138.788C18.2673 138.215 12.8688 139.696 8.53418 142.935L93.8676 78.9347C97.5644 76.1731 102.053 74.6771 106.668 74.6679C109.394 74.6455 112.097 75.1615 114.623 76.1867C117.149 77.2115 119.448 78.7255 121.388 80.6411L122.881 82.1347L210.028 165.655L304.214 256.001L383.894 332.375L474.456 419.2L475.948 420.696C477.888 422.612 480.184 424.124 482.712 425.148C485.236 426.176 487.94 426.692 490.668 426.668C494.872 426.68 498.992 425.456 502.508 423.148Z" fill="url(#paint1_linear_164_314)"/>
</g>
<g filter="url(#filter2_dd_164_314)">
<path d="M512 106.668V405.336C512.004 408.856 511.136 412.324 509.48 415.428C507.828 418.536 505.428 421.188 502.504 423.148L374.505 508.48C377.43 506.52 379.826 503.868 381.482 500.764C383.138 497.656 384.002 494.188 383.999 490.668L383.892 332.374L383.785 179.734L383.679 21.3343C383.696 17.8112 382.837 14.339 381.18 11.2298C379.523 8.12052 377.119 5.47164 374.185 3.521L502.504 88.8544C505.424 90.822 507.812 93.4744 509.468 96.58C511.124 99.6852 511.992 103.149 512 106.668Z" fill="url(#paint2_linear_164_314)"/>
</g>
</g>
</g>
<defs>
<filter id="filter0_dd_164_314" x="-19.7992" y="-21.2501" width="550.641" height="494" filterUnits="userSpaceOnUse" color-interpolation-filters="sRGB">
<feFlood flood-opacity="0" result="BackgroundImageFix"/>
<feColorMatrix in="SourceAlpha" type="matrix" values="0 0 0 0 0 0 0 0 0 0 0 0 0 0 0 0 0 0 127 0" result="hardAlpha"/>
<feOffset dy="1.34583"/>
<feGaussianBlur stdDeviation="1.34583"/>
<feColorMatrix type="matrix" values="0 0 0 0 0 0 0 0 0 0 0 0 0 0 0 0 0 0 0.24 0"/>
<feBlend mode="normal" in2="BackgroundImageFix" result="effect1_dropShadow_164_314"/>
<feColorMatrix in="SourceAlpha" type="matrix" values="0 0 0 0 0 0 0 0 0 0 0 0 0 0 0 0 0 0 127 0" result="hardAlpha"/>
<feOffset dy="7.08333"/>
<feGaussianBlur stdDeviation="14.1667"/>
<feColorMatrix type="matrix" values="0 0 0 0 0 0 0 0 0 0 0 0 0 0 0 0 0 0 0.22 0"/>
<feBlend mode="normal" in2="effect1_dropShadow_164_314" result="effect2_dropShadow_164_314"/>
<feBlend mode="normal" in="SourceGraphic" in2="effect2_dropShadow_164_314" result="shape"/>
</filter>
<filter id="filter1_dd_164_314" x="-19.7992" y="53.4172" width="550.641" height="494.002" filterUnits="userSpaceOnUse" color-interpolation-filters="sRGB">
<feFlood flood-opacity="0" result="BackgroundImageFix"/>
<feColorMatrix in="SourceAlpha" type="matrix" values="0 0 0 0 0 0 0 0 0 0 0 0 0 0 0 0 0 0 127 0" result="hardAlpha"/>
<feOffset dy="1.34583"/>
<feGaussianBlur stdDeviation="1.34583"/>
<feColorMatrix type="matrix" values="0 0 0 0 0 0 0 0 0 0 0 0 0 0 0 0 0 0 0.24 0"/>
<feBlend mode="normal" in2="BackgroundImageFix" result="effect1_dropShadow_164_314"/>
<feColorMatrix in="SourceAlpha" type="matrix" values="0 0 0 0 0 0 0 0 0 0 0 0 0 0 0 0 0 0 127 0" result="hardAlpha"/>
<feOffset dy="7.08333"/>
<feGaussianBlur stdDeviation="14.1667"/>
<feColorMatrix type="matrix" values="0 0 0 0 0 0 0 0 0 0 0 0 0 0 0 0 0 0 0.22 0"/>
<feBlend mode="normal" in2="effect1_dropShadow_164_314" result="effect2_dropShadow_164_314"/>
<feBlend mode="normal" in="SourceGraphic" in2="effect2_dropShadow_164_314" result="shape"/>
</filter>
<filter id="filter2_dd_164_314" x="289.185" y="-81.479" width="307.815" height="674.959" filterUnits="userSpaceOnUse" color-interpolation-filters="sRGB">
<feFlood flood-opacity="0" result="BackgroundImageFix"/>
<feColorMatrix in="SourceAlpha" type="matrix" values="0 0 0 0 0 0 0 0 0 0 0 0 0 0 0 0 0 0 127 0" result="hardAlpha"/>
<feOffset/>
<feGaussianBlur stdDeviation="0.708333"/>
<feColorMatrix type="matrix" values="0 0 0 0 0 0 0 0 0 0 0 0 0 0 0 0 0 0 0.24 0"/>
<feBlend mode="normal" in2="BackgroundImageFix" result="effect1_dropShadow_164_314"/>
<feColorMatrix in="SourceAlpha" type="matrix" values="0 0 0 0 0 0 0 0 0 0 0 0 0 0 0 0 0 0 127 0" result="hardAlpha"/>
<feOffset/>
<feGaussianBlur stdDeviation="42.5"/>
<feColorMatrix type="matrix" values="0 0 0 0 0 0 0 0 0 0 0 0 0 0 0 0 0 0 0.3 0"/>
<feBlend mode="normal" in2="effect1_dropShadow_164_314" result="effect2_dropShadow_164_314"/>
<feBlend mode="normal" in="SourceGraphic" in2="effect2_dropShadow_164_314" result="shape"/>
</filter>
<linearGradient id="paint0_linear_164_314" x1="416" y1="1.49865e-05" x2="35.8192" y2="382.65" gradientUnits="userSpaceOnUse">
<stop stop-color="#7252AA"/>
<stop offset="1" stop-color="#7252AA"/>
</linearGradient>
<linearGradient id="paint1_linear_164_314" x1="48.0004" y1="93.3339" x2="405.332" y2="493.332" gradientUnits="userSpaceOnUse">
<stop stop-color="#AE7FE2"/>
<stop offset="1" stop-color="#9A70D4"/>
</linearGradient>
<linearGradient id="paint2_linear_164_314" x1="441.576" y1="-6.77512" x2="441.576" y2="508.052" gradientUnits="userSpaceOnUse">
<stop stop-color="#D59DFF"/>
<stop offset="1" stop-color="#C18EF1"/>
</linearGradient>
<clipPath id="clip0_164_314">
<rect width="512" height="512" fill="white"/>
</clipPath>
</defs>
</svg>
