<svg width="512" height="512" viewBox="0 0 512 512" fill="none" xmlns="http://www.w3.org/2000/svg">
<g clip-path="url(#clip0_168_419)">
<path d="M500.856 133.572C494.984 111.511 482.108 92.8376 460.047 86.9647C420.066 76.2729 256 75.2941 256 75.2941C256 75.2941 91.9341 76.2729 51.9529 86.9647C29.8918 92.8376 17.0918 111.511 11.1435 133.572C0.451765 173.553 0 256 0 256C0 256 0.451765 338.447 11.1435 378.428C17.0165 400.489 29.8918 419.162 51.9529 425.035C91.9341 435.727 256 436.706 256 436.706C256 436.706 420.066 435.727 460.047 425.035C482.108 419.162 494.984 400.489 500.856 378.428C511.548 338.447 512 256 512 256C512 256 511.548 173.553 500.856 133.572Z" fill="#FF0000"/>
<path d="M338.824 256L203.294 180.706V331.294" fill="white"/>
</g>
<defs>
<clipPath id="clip0_168_419">
<rect width="512" height="512" fill="white"/>
</clipPath>
</defs>
</svg>
